<svg width="243" height="284" viewBox="0 0 243 284" fill="none" xmlns="http://www.w3.org/2000/svg">
<g filter="url(#filter0_d)">
<path d="M82.7812 221.369C82.6263 223.511 81.8333 225.197 80.4023 226.428C78.9805 227.658 77.1029 228.273 74.7695 228.273C72.2174 228.273 70.2077 227.417 68.7402 225.703C67.2819 223.98 66.5527 221.62 66.5527 218.621V217.404C66.5527 215.49 66.89 213.804 67.5645 212.346C68.2389 210.887 69.2005 209.771 70.4492 208.996C71.707 208.212 73.1654 207.82 74.8242 207.82C77.1211 207.82 78.9714 208.436 80.375 209.666C81.7786 210.896 82.5898 212.624 82.8086 214.848H78.707C78.6068 213.562 78.2467 212.633 77.627 212.059C77.0163 211.475 76.082 211.184 74.8242 211.184C73.457 211.184 72.4316 211.676 71.748 212.66C71.0736 213.635 70.7272 215.153 70.709 217.213V218.717C70.709 220.868 71.0326 222.44 71.6797 223.434C72.3359 224.427 73.3659 224.924 74.7695 224.924C76.0365 224.924 76.9798 224.637 77.5996 224.062C78.2285 223.479 78.5885 222.581 78.6797 221.369H82.7812ZM94.0742 226.496C93.099 227.681 91.75 228.273 90.0273 228.273C88.4414 228.273 87.2292 227.818 86.3906 226.906C85.5612 225.995 85.1374 224.66 85.1191 222.9V213.207H89.0703V222.764C89.0703 224.304 89.7721 225.074 91.1758 225.074C92.5156 225.074 93.4362 224.609 93.9375 223.68V213.207H97.9023V228H94.1836L94.0742 226.496ZM105.053 228H101.088V207H105.053V228ZM112.49 228H108.525V213.207H112.49V228ZM108.293 209.379C108.293 208.786 108.489 208.299 108.881 207.916C109.282 207.533 109.824 207.342 110.508 207.342C111.182 207.342 111.72 207.533 112.121 207.916C112.522 208.299 112.723 208.786 112.723 209.379C112.723 209.98 112.518 210.473 112.107 210.855C111.706 211.238 111.173 211.43 110.508 211.43C109.842 211.43 109.305 211.238 108.895 210.855C108.493 210.473 108.293 209.98 108.293 209.379ZM119.395 213.207L119.518 214.916C120.575 213.594 121.992 212.934 123.77 212.934C125.337 212.934 126.504 213.394 127.27 214.314C128.035 215.235 128.427 216.611 128.445 218.443V228H124.494V218.539C124.494 217.701 124.312 217.094 123.947 216.721C123.583 216.338 122.977 216.146 122.129 216.146C121.017 216.146 120.183 216.62 119.627 217.568V228H115.676V213.207H119.395ZM140.025 228C139.843 227.645 139.711 227.202 139.629 226.674C138.672 227.74 137.428 228.273 135.896 228.273C134.447 228.273 133.244 227.854 132.287 227.016C131.339 226.177 130.865 225.12 130.865 223.844C130.865 222.276 131.444 221.073 132.602 220.234C133.768 219.396 135.45 218.972 137.646 218.963H139.465V218.115C139.465 217.432 139.287 216.885 138.932 216.475C138.585 216.064 138.034 215.859 137.277 215.859C136.612 215.859 136.088 216.019 135.705 216.338C135.331 216.657 135.145 217.094 135.145 217.65H131.193C131.193 216.794 131.458 216.001 131.986 215.271C132.515 214.542 133.262 213.973 134.229 213.562C135.195 213.143 136.279 212.934 137.482 212.934C139.305 212.934 140.75 213.394 141.816 214.314C142.892 215.226 143.43 216.511 143.43 218.17V224.582C143.439 225.986 143.635 227.048 144.018 227.768V228H140.025ZM136.758 225.252C137.341 225.252 137.879 225.124 138.371 224.869C138.863 224.605 139.228 224.254 139.465 223.816V221.273H137.988C136.01 221.273 134.958 221.957 134.83 223.324L134.816 223.557C134.816 224.049 134.99 224.454 135.336 224.773C135.682 225.092 136.156 225.252 136.758 225.252ZM138.262 207H142.568L138.781 211.238H135.568L138.262 207ZM154.777 216.912C154.24 216.839 153.766 216.803 153.355 216.803C151.861 216.803 150.881 217.309 150.416 218.32V228H146.465V213.207H150.197L150.307 214.971C151.1 213.613 152.198 212.934 153.602 212.934C154.039 212.934 154.449 212.993 154.832 213.111L154.777 216.912ZM160.861 228H156.896V213.207H160.861V228ZM156.664 209.379C156.664 208.786 156.86 208.299 157.252 207.916C157.653 207.533 158.195 207.342 158.879 207.342C159.553 207.342 160.091 207.533 160.492 207.916C160.893 208.299 161.094 208.786 161.094 209.379C161.094 209.98 160.889 210.473 160.479 210.855C160.077 211.238 159.544 211.43 158.879 211.43C158.214 211.43 157.676 211.238 157.266 210.855C156.865 210.473 156.664 209.98 156.664 209.379ZM172.701 228C172.519 227.645 172.387 227.202 172.305 226.674C171.348 227.74 170.104 228.273 168.572 228.273C167.123 228.273 165.92 227.854 164.963 227.016C164.015 226.177 163.541 225.12 163.541 223.844C163.541 222.276 164.12 221.073 165.277 220.234C166.444 219.396 168.126 218.972 170.322 218.963H172.141V218.115C172.141 217.432 171.963 216.885 171.607 216.475C171.261 216.064 170.71 215.859 169.953 215.859C169.288 215.859 168.764 216.019 168.381 216.338C168.007 216.657 167.82 217.094 167.82 217.65H163.869C163.869 216.794 164.133 216.001 164.662 215.271C165.191 214.542 165.938 213.973 166.904 213.562C167.87 213.143 168.955 212.934 170.158 212.934C171.981 212.934 173.426 213.394 174.492 214.314C175.568 215.226 176.105 216.511 176.105 218.17V224.582C176.115 225.986 176.311 227.048 176.693 227.768V228H172.701ZM169.434 225.252C170.017 225.252 170.555 225.124 171.047 224.869C171.539 224.605 171.904 224.254 172.141 223.816V221.273H170.664C168.686 221.273 167.633 221.957 167.506 223.324L167.492 223.557C167.492 224.049 167.665 224.454 168.012 224.773C168.358 225.092 168.832 225.252 169.434 225.252Z" fill="#77BB88"/>
<path d="M161.544 142.764L53 172L80.2332 55.4752C80.2332 55.4752 105.705 22.3605 148.991 68.8302C192.278 115.3 161.544 142.764 161.544 142.764Z" fill="#FED841"/>
<path d="M53 172L161.544 142.764C161.544 142.764 192.251 115.324 149.047 68.8906L53 172Z" fill="#FDB118"/>
<path d="M103.193 139.466C94.0176 142.001 88.4705 151.986 90.7164 161.838L124.237 152.81C121.858 142.887 112.437 136.912 103.193 139.466V139.466Z" fill="#FF1F2E"/>
<path d="M157.294 60.0377C138.342 39.6923 113.64 27.7637 87.1219 26L80.2332 55.4752C87.8173 55.4752 96.0677 49.2505 103.068 51.2657C110.304 53.3485 114.53 63.2351 120.87 67.1791C127.297 71.1773 137.372 70.2172 142.592 75.8208C147.811 81.4241 146.917 92.2401 150.641 99.1394C154.315 105.945 163.525 110.483 165.465 118.251C167.342 125.766 161.544 134.623 161.544 142.765L189 135.369C187.357 106.901 176.245 80.3824 157.294 60.0377V60.0377Z" fill="#BF5C15"/>
<path d="M157.294 60.0374L142.592 75.8205C147.811 81.4238 146.917 92.2398 150.641 99.1392C154.315 105.945 163.525 110.483 165.465 118.251C167.342 125.765 161.544 134.623 161.544 142.764L189 135.369C187.357 106.901 176.245 80.3824 157.294 60.0374V60.0374Z" fill="#994910"/>
<path d="M132.315 106.567C133.23 96.6974 126.519 87.9008 117.326 86.9188C108.132 85.9368 99.938 93.1414 99.0233 103.011C98.1086 112.88 104.82 121.677 114.013 122.659C123.206 123.641 131.401 116.436 132.315 106.567Z" fill="#FF4D55"/>
<path d="M103.82 117.443C106.848 120.693 111.03 122.703 115.65 122.703C124.89 122.703 132.38 114.662 132.38 104.743C132.38 99.7839 130.507 95.2938 127.48 92.0439L103.82 117.443Z" fill="#FF1F2E"/>
<path d="M70.4595 97.2936L63.3007 127.925C71.1985 129.973 79.1473 124.76 81.055 116.281C82.9423 107.893 78.2078 99.4566 70.4595 97.2936V97.2936Z" fill="#FF4D55"/>
<path d="M74.9536 140.169H82.6509V148.435H74.9536V140.169Z" fill="#7AD425"/>
<path d="M74.9536 148.432V148.434H82.6512V140.169L74.9536 148.432Z" fill="#6EBD21"/>
<path d="M135.408 123.946H143.105V132.212H135.408V123.946Z" fill="#6EBD21"/>
<path d="M91.5754 73.6453H99.2727V81.9111H91.5754V73.6453Z" fill="#7AD425"/>
<rect x="5" y="1" width="233" height="274" rx="15" stroke="#62B076" stroke-width="2"/>
</g>
<defs>
<filter id="filter0_d" x="0" y="0" width="243" height="284" filterUnits="userSpaceOnUse" color-interpolation-filters="sRGB">
<feFlood flood-opacity="0" result="BackgroundImageFix"/>
<feColorMatrix in="SourceAlpha" type="matrix" values="0 0 0 0 0 0 0 0 0 0 0 0 0 0 0 0 0 0 127 0"/>
<feOffset dy="4"/>
<feGaussianBlur stdDeviation="2"/>
<feColorMatrix type="matrix" values="0 0 0 0 0 0 0 0 0 0 0 0 0 0 0 0 0 0 0.25 0"/>
<feBlend mode="normal" in2="BackgroundImageFix" result="effect1_dropShadow"/>
<feBlend mode="normal" in="SourceGraphic" in2="effect1_dropShadow" result="shape"/>
</filter>
</defs>
</svg>
