<svg width="243" height="284" viewBox="0 0 243 284" fill="none" xmlns="http://www.w3.org/2000/svg">
<g filter="url(#filter0_d)">
<path d="M97.4102 218.498C97.4102 220.458 97.0638 222.176 96.3711 223.652C95.6784 225.129 94.6849 226.268 93.3906 227.07C92.1055 227.872 90.6289 228.273 88.9609 228.273C87.3112 228.273 85.8392 227.877 84.5449 227.084C83.2507 226.291 82.248 225.161 81.5371 223.693C80.8262 222.217 80.4661 220.521 80.457 218.607V217.623C80.457 215.663 80.8079 213.941 81.5098 212.455C82.2207 210.96 83.2188 209.816 84.5039 209.023C85.7982 208.221 87.2747 207.82 88.9336 207.82C90.5924 207.82 92.0645 208.221 93.3496 209.023C94.6439 209.816 95.6419 210.96 96.3438 212.455C97.0547 213.941 97.4102 215.659 97.4102 217.609V218.498ZM93.2539 217.596C93.2539 215.508 92.8802 213.923 92.1328 212.838C91.3854 211.753 90.319 211.211 88.9336 211.211C87.5573 211.211 86.4954 211.749 85.748 212.824C85.0007 213.891 84.6224 215.458 84.6133 217.527V218.498C84.6133 220.531 84.987 222.107 85.7344 223.229C86.4818 224.35 87.5573 224.91 88.9609 224.91C90.3372 224.91 91.3945 224.372 92.1328 223.297C92.8711 222.212 93.2448 220.635 93.2539 218.566V217.596ZM108.99 226.496C108.015 227.681 106.666 228.273 104.943 228.273C103.357 228.273 102.145 227.818 101.307 226.906C100.477 225.995 100.053 224.66 100.035 222.9V213.207H103.986V222.764C103.986 224.304 104.688 225.074 106.092 225.074C107.432 225.074 108.352 224.609 108.854 223.68V213.207H112.818V228H109.1L108.99 226.496ZM120.529 209.57V213.207H123.059V216.105H120.529V223.488C120.529 224.035 120.634 224.427 120.844 224.664C121.053 224.901 121.454 225.02 122.047 225.02C122.484 225.02 122.872 224.988 123.209 224.924V227.918C122.434 228.155 121.637 228.273 120.816 228.273C118.046 228.273 116.633 226.874 116.578 224.076V216.105H114.418V213.207H116.578V209.57H120.529ZM133.572 216.912C133.035 216.839 132.561 216.803 132.15 216.803C130.656 216.803 129.676 217.309 129.211 218.32V228H125.26V213.207H128.992L129.102 214.971C129.895 213.613 130.993 212.934 132.396 212.934C132.834 212.934 133.244 212.993 133.627 213.111L133.572 216.912ZM134.379 220.467C134.379 218.999 134.661 217.691 135.227 216.543C135.792 215.395 136.603 214.506 137.66 213.877C138.727 213.248 139.962 212.934 141.365 212.934C143.361 212.934 144.988 213.544 146.246 214.766C147.513 215.987 148.219 217.646 148.365 219.742L148.393 220.754C148.393 223.023 147.759 224.846 146.492 226.223C145.225 227.59 143.525 228.273 141.393 228.273C139.26 228.273 137.555 227.59 136.279 226.223C135.012 224.855 134.379 222.996 134.379 220.645V220.467ZM138.33 220.754C138.33 222.158 138.594 223.233 139.123 223.98C139.652 224.719 140.408 225.088 141.393 225.088C142.35 225.088 143.097 224.723 143.635 223.994C144.173 223.256 144.441 222.08 144.441 220.467C144.441 219.09 144.173 218.024 143.635 217.268C143.097 216.511 142.34 216.133 141.365 216.133C140.399 216.133 139.652 216.511 139.123 217.268C138.594 218.015 138.33 219.177 138.33 220.754ZM158.838 223.912C158.838 223.429 158.596 223.051 158.113 222.777C157.639 222.495 156.874 222.244 155.816 222.025C152.298 221.287 150.539 219.792 150.539 217.541C150.539 216.229 151.081 215.135 152.166 214.26C153.26 213.376 154.686 212.934 156.445 212.934C158.323 212.934 159.822 213.376 160.943 214.26C162.074 215.144 162.639 216.292 162.639 217.705H158.688C158.688 217.14 158.505 216.675 158.141 216.311C157.776 215.937 157.206 215.75 156.432 215.75C155.766 215.75 155.251 215.9 154.887 216.201C154.522 216.502 154.34 216.885 154.34 217.35C154.34 217.787 154.545 218.143 154.955 218.416C155.374 218.68 156.076 218.913 157.061 219.113C158.045 219.305 158.874 219.523 159.549 219.77C161.636 220.535 162.68 221.861 162.68 223.748C162.68 225.097 162.101 226.191 160.943 227.029C159.786 227.859 158.291 228.273 156.459 228.273C155.219 228.273 154.117 228.055 153.15 227.617C152.193 227.171 151.441 226.564 150.895 225.799C150.348 225.024 150.074 224.19 150.074 223.297H153.82C153.857 223.999 154.117 224.536 154.6 224.91C155.083 225.284 155.73 225.471 156.541 225.471C157.298 225.471 157.867 225.329 158.25 225.047C158.642 224.755 158.838 224.377 158.838 223.912Z" fill="#77BB88"/>
<g clip-path="url(#clip0)">
<path d="M55.9229 73.9947H45.3987C44.9957 71.8531 44.7871 69.6455 44.7871 67.3892C44.7871 65.1329 44.9957 62.9253 45.3987 60.7838H55.5481L55.9229 73.9947Z" fill="#407194"/>
<path d="M198.213 67.3892C198.213 69.6455 198.004 71.8531 197.601 73.9947H187.077L187.477 60.7838H197.601C198.004 62.9253 198.213 65.1329 198.213 67.3892Z" fill="#407194"/>
<path d="M55.9229 73.9947H39.2723C36.168 73.9947 33.6514 71.0372 33.6514 67.3892C33.6514 63.7413 36.168 60.7838 39.2723 60.7838H55.5481L55.9229 73.9947Z" fill="#407194"/>
<path d="M187.476 60.7838H203.369C206.671 60.7838 209.349 63.7413 209.349 67.3892C209.349 71.0372 206.671 73.9947 203.369 73.9947H187.077L187.476 60.7838Z" fill="#407194"/>
<path d="M55.9229 73.9947H45.3987C44.9957 71.8531 44.7871 69.6455 44.7871 67.3892C44.7871 65.1329 44.9957 62.9253 45.3987 60.7838H55.5481L55.9229 73.9947Z" fill="#365F7E"/>
<path d="M198.213 67.3892C198.213 69.6455 198.004 71.8531 197.601 73.9947H187.077L187.477 60.7838H197.601C198.004 62.9253 198.213 65.1329 198.213 67.3892Z" fill="#365F7E"/>
<path d="M81.9062 96.94C98.5018 96.94 111.955 83.7097 111.955 67.3892C111.955 51.0688 98.5018 37.8384 81.9062 37.8384C65.3107 37.8384 51.8574 51.0688 51.8574 67.3892C51.8574 83.7097 65.3107 96.94 81.9062 96.94Z" fill="#407194"/>
<path d="M161.094 96.94C177.689 96.94 191.143 83.7097 191.143 67.3892C191.143 51.0688 177.689 37.8384 161.094 37.8384C144.498 37.8384 131.045 51.0688 131.045 67.3892C131.045 83.7097 144.498 96.94 161.094 96.94Z" fill="#407194"/>
<path d="M105.79 85.3144C100.307 92.3822 91.6456 96.94 81.9062 96.94C65.3122 96.94 51.8574 83.7082 51.8574 67.3892C51.8574 57.8113 56.492 49.2937 63.679 43.9016C59.8115 48.8731 57.5137 55.0857 57.5137 61.8267C57.5137 78.1457 70.9685 91.3775 87.5625 91.3775C94.4172 91.3775 100.734 89.1177 105.79 85.3144Z" fill="#365F7E"/>
<path d="M184.977 85.3144C179.494 92.3822 170.833 96.94 161.094 96.94C144.5 96.94 131.045 83.7082 131.045 67.3892C131.045 57.8113 135.68 49.2937 142.866 43.9016C138.999 48.8731 136.701 55.0857 136.701 61.8267C136.701 78.1457 150.156 91.3775 166.75 91.3775C173.605 91.3775 179.922 89.1177 184.977 85.3144Z" fill="#365F7E"/>
<path d="M121.419 143.228C120.206 152.328 105.418 157.968 95.0549 158.157C80.1885 158.428 65.7251 147.64 57.8672 131.072C64.4274 134.343 70.4329 135.395 75.9389 134.668C84.4675 133.543 86.4171 128.86 96.2615 127.407C99.8037 126.884 108.069 125.664 114.631 130.429C118.263 133.065 122.108 138.068 121.419 143.228V143.228Z" fill="#E3E0E4"/>
<path d="M117.597 150.02C112.266 155.061 102.513 158.02 95.0535 158.155C80.1882 158.426 65.7258 147.639 57.8672 131.073C62.3957 133.329 66.6591 134.529 70.6751 134.817C78.8978 146.401 90.73 153.507 102.831 153.288C107.409 153.205 112.846 152.061 117.597 150.02Z" fill="#C8C3CA"/>
<path d="M121.581 143.228C122.794 152.328 137.582 157.968 147.945 158.157C162.811 158.428 177.275 147.64 185.133 131.072C178.573 134.343 172.567 135.395 167.061 134.668C158.533 133.543 156.583 128.86 146.739 127.407C143.196 126.884 134.931 125.664 128.369 130.429C124.737 133.065 120.892 138.068 121.581 143.228V143.228Z" fill="#E3E0E4"/>
<path d="M170.398 149.989C163.653 155.311 155.855 158.301 147.946 158.155C137.581 157.968 122.794 152.329 121.581 143.227C120.892 138.068 124.738 133.065 128.369 130.43C129.846 129.359 131.409 128.587 132.986 128.048C130.295 130.826 128.118 134.72 128.652 138.707C129.864 147.809 144.652 153.448 155.017 153.636C160.288 153.733 165.506 152.436 170.398 149.989Z" fill="#C8C3CA"/>
<path d="M113.342 69.2172L100.358 102.856C98.1906 108.471 102.409 114.483 108.516 114.483H134.484C140.592 114.483 144.809 108.471 142.642 102.856L129.658 69.2172C126.809 61.8358 116.191 61.8358 113.342 69.2172Z" fill="#DC4955"/>
<path d="M142.782 108.573C141.657 111.917 138.472 114.483 134.485 114.483H108.515C102.41 114.483 98.1892 108.472 100.356 102.857L113.341 69.2179C114.889 65.2094 118.728 63.3773 122.37 63.7249L109.548 96.9469C107.381 102.562 111.602 108.573 117.707 108.573H142.782Z" fill="#D82F3C"/>
<path d="M81.5527 84.4244C91.1196 84.4244 98.875 76.7975 98.875 67.3892C98.875 57.981 91.1196 50.3541 81.5527 50.3541C71.9859 50.3541 64.2305 57.981 64.2305 67.3892C64.2305 76.7975 71.9859 84.4244 81.5527 84.4244Z" fill="#F9F8F9"/>
<path d="M160.74 84.4244C170.307 84.4244 178.062 76.7975 178.062 67.3892C178.062 57.981 170.307 50.3541 160.74 50.3541C151.173 50.3541 143.418 57.981 143.418 67.3892C143.418 76.7975 151.173 84.4244 160.74 84.4244Z" fill="#F9F8F9"/>
<path d="M96.1635 76.543C93.0879 81.2816 87.6933 84.4244 81.5527 84.4244C71.9866 84.4244 64.2305 76.7968 64.2305 67.3892C64.2305 61.3504 67.4262 56.0452 72.2447 53.0206C70.5266 55.6628 69.5332 58.8056 69.5332 62.1744C69.5332 71.582 77.2893 79.2095 86.8555 79.2095C90.281 79.2095 93.4768 78.2326 96.1635 76.543V76.543Z" fill="#EFEDEF"/>
<path d="M175.351 76.543C172.275 81.2816 166.881 84.4244 160.74 84.4244C151.174 84.4244 143.418 76.7968 143.418 67.3892C143.418 61.3504 146.614 56.0452 151.432 53.0206C149.714 55.6628 148.721 58.8056 148.721 62.1744C148.721 71.582 156.477 79.2095 166.043 79.2095C169.469 79.2095 172.664 78.2326 175.351 76.543V76.543Z" fill="#EFEDEF"/>
<path d="M183.933 128.746C175.271 133.157 166.358 133.609 158.88 128.988C155.958 127.42 152.646 125.643 147.132 124.829C143.274 124.258 134.239 122.926 126.794 128.331C124.934 129.681 122.997 131.591 121.5 133.864C120.003 131.591 118.066 129.681 116.206 128.331C108.761 122.926 99.7263 124.259 95.868 124.829C86.1834 126.092 84.173 130.697 75.5865 132.084C70.4283 132.765 64.8717 131.641 59.0667 128.746C58.0577 128.243 56.8363 128.424 56.024 129.198C55.2112 129.971 54.9864 131.166 55.4647 132.174C63.7331 149.608 79.0095 160.769 94.5169 160.769C103.649 160.745 116.045 156.848 121.499 149.598C125.676 155.21 134.153 158.879 142.269 160.228C143.68 160.472 145.088 159.519 145.326 158.091C145.569 156.671 144.597 155.325 143.153 155.085C134.353 153.623 125.02 148.964 124.21 142.888C123.692 139.005 126.819 134.795 129.944 132.526C135.623 128.403 143.137 129.512 146.345 129.985C150.931 130.662 153.559 132.072 156.34 133.565C162.254 137.394 171.74 138.687 179.287 136.179C172.976 146.005 164.055 152.831 154.513 154.9C153.083 155.21 152.18 156.601 152.495 158.007C152.811 159.413 154.224 160.303 155.655 159.992C168.698 157.164 180.616 146.764 187.536 132.173C188.014 131.165 187.789 129.97 186.977 129.197C186.164 128.424 184.942 128.243 183.933 128.746V128.746ZM118.791 142.888C117.87 149.791 105.249 155.363 95.0061 155.55C83.2694 155.77 71.5306 148.338 63.7147 136.18C71.2566 138.688 80.7517 137.393 86.66 133.566C89.4414 132.072 92.0695 130.662 96.6553 129.985C99.8631 129.512 107.377 128.402 113.057 132.526C116.181 134.795 119.309 139.005 118.791 142.888V142.888Z" fill="black"/>
<path d="M81.5527 87.0318C92.5662 87.0318 101.526 78.2201 101.526 67.3892C101.526 56.5583 92.5662 47.7466 81.5527 47.7466C70.5393 47.7466 61.5791 56.5583 61.5791 67.3892C61.5791 78.2201 70.5393 87.0318 81.5527 87.0318ZM81.5527 52.9615C89.6422 52.9615 96.2236 59.4338 96.2236 67.3892C96.2236 75.3446 89.6422 81.817 81.5527 81.817C73.4632 81.817 66.8818 75.3446 66.8818 67.3892C66.8818 59.4338 73.4632 52.9615 81.5527 52.9615Z" fill="black"/>
<path d="M203.369 58.1763H192.424C188.387 44.9202 175.87 35.231 161.094 35.231C144.394 35.231 130.579 47.6069 128.631 63.5222C126.663 61.9658 124.175 61.0737 121.5 61.0737C118.825 61.0737 116.338 61.9658 114.37 63.5222C112.421 47.6069 98.6067 35.231 81.9066 35.231C67.1304 35.231 54.6141 44.9202 50.5763 58.1763H39.2723C34.7109 58.1763 31 62.3093 31 67.3892C31 72.4692 34.7109 76.6021 39.2723 76.6021H50.5858C51.8256 80.6777 53.876 84.5043 56.6529 87.8206C57.5837 88.9321 59.2547 89.091 60.3853 88.1756C61.5155 87.2602 61.677 85.6172 60.7462 84.505C56.7239 79.7022 54.5088 73.6241 54.5088 67.3892C54.5088 52.5328 66.7995 40.4459 81.9062 40.4459C97.013 40.4459 109.304 52.5328 109.304 67.3892C109.304 82.2456 97.013 94.3326 81.9062 94.3326C77.5863 94.3326 73.4548 93.3731 69.6255 91.4811C68.3164 90.8362 66.7238 91.3542 66.0659 92.6405C65.4087 93.9272 65.9365 95.4944 67.2449 96.1411C71.8194 98.4012 76.7527 99.5474 81.9066 99.5474C89.1148 99.5474 95.7842 97.2404 101.195 93.3397L97.8795 101.931C96.5524 105.369 97.0282 109.229 99.1522 112.256C101.276 115.283 104.777 117.09 108.517 117.09H134.484C142.204 117.304 148.064 108.952 145.122 101.931L141.806 93.3397C147.217 97.24 153.886 99.5474 161.094 99.5474C175.871 99.5474 188.387 89.8582 192.425 76.6021H203.369C208.129 76.6021 212 72.4692 212 67.3892C212 62.3093 208.128 58.1763 203.369 58.1763V58.1763ZM39.2723 71.3873C37.6624 71.3873 36.3027 69.5562 36.3027 67.3892C36.3027 65.2223 37.6627 63.3912 39.2723 63.3912H49.4585C49.1226 66.0111 49.1216 68.7562 49.4641 71.3873H39.2723ZM139.484 109.294C138.333 110.935 136.511 111.876 134.484 111.876H108.516C104.391 112.003 101.251 107.529 102.836 103.782L115.821 70.1423C116.918 67.3009 119.474 66.2885 121.5 66.2885C123.526 66.2885 126.083 67.3009 127.179 70.1423L140.164 103.782C140.883 105.645 140.635 107.654 139.484 109.294ZM161.094 94.3326C145.987 94.3326 133.696 82.2456 133.696 67.3892C133.696 52.5328 145.987 40.4459 161.094 40.4459C176.201 40.4459 188.491 52.5328 188.491 67.3892C188.491 82.2456 176.201 94.3326 161.094 94.3326ZM203.369 71.3873H193.542C193.877 68.7767 193.877 66.0017 193.542 63.3912H203.369C205.204 63.3912 206.697 65.1847 206.697 67.3892C206.697 69.5937 205.204 71.3873 203.369 71.3873Z" fill="black"/>
<path d="M178.262 57.8332C177.546 56.5775 175.929 56.1297 174.652 56.8347C173.375 57.5391 172.921 59.1286 173.637 60.3843C174.867 62.5415 175.517 64.9984 175.517 67.4897C175.517 75.5133 168.88 82.0405 160.721 82.0405C152.562 82.0405 145.925 75.5133 145.925 67.4897C145.925 59.4662 152.562 52.9389 160.721 52.9389C161.996 52.9389 163.261 53.0981 164.48 53.4117C165.898 53.7747 167.346 52.9417 167.716 51.5493C168.087 50.1563 167.239 48.7316 165.822 48.3669C164.165 47.9403 162.449 47.7241 160.721 47.7241C149.638 47.7241 140.622 56.591 140.622 67.4897C140.622 78.3884 149.638 87.2554 160.721 87.2554C171.804 87.2554 180.82 78.3884 180.82 67.4897C180.82 64.107 179.935 60.7678 178.262 57.8332V57.8332Z" fill="black"/>
</g>
<rect x="5" y="1" width="233" height="274" rx="15" stroke="#62B076" stroke-width="2"/>
</g>
<defs>
<filter id="filter0_d" x="0" y="0" width="243" height="284" filterUnits="userSpaceOnUse" color-interpolation-filters="sRGB">
<feFlood flood-opacity="0" result="BackgroundImageFix"/>
<feColorMatrix in="SourceAlpha" type="matrix" values="0 0 0 0 0 0 0 0 0 0 0 0 0 0 0 0 0 0 127 0"/>
<feOffset dy="4"/>
<feGaussianBlur stdDeviation="2"/>
<feColorMatrix type="matrix" values="0 0 0 0 0 0 0 0 0 0 0 0 0 0 0 0 0 0 0.25 0"/>
<feBlend mode="normal" in2="BackgroundImageFix" result="effect1_dropShadow"/>
<feBlend mode="normal" in="SourceGraphic" in2="effect1_dropShadow" result="shape"/>
</filter>
<clipPath id="clip0">
<rect width="181" height="178" fill="white" transform="translate(31 9)"/>
</clipPath>
</defs>
</svg>
