<svg width="243" height="284" viewBox="0 0 243 284" fill="none" xmlns="http://www.w3.org/2000/svg">
<g filter="url(#filter0_d)">
<path d="M95.0723 225.484C94.334 226.368 93.2904 227.057 91.9414 227.549C90.5924 228.032 89.0977 228.273 87.457 228.273C85.7344 228.273 84.2214 227.9 82.918 227.152C81.6237 226.396 80.6211 225.302 79.9102 223.871C79.2083 222.44 78.8483 220.758 78.8301 218.826V217.473C78.8301 215.486 79.1628 213.768 79.8281 212.318C80.5026 210.86 81.4688 209.748 82.7266 208.982C83.9935 208.208 85.4746 207.82 87.1699 207.82C89.5306 207.82 91.3763 208.385 92.707 209.516C94.0378 210.637 94.8262 212.273 95.0723 214.424H91.0801C90.8978 213.285 90.4922 212.451 89.8633 211.922C89.2435 211.393 88.3867 211.129 87.293 211.129C85.8984 211.129 84.8366 211.653 84.1074 212.701C83.3783 213.749 83.0091 215.308 83 217.377V218.648C83 220.736 83.3965 222.312 84.1895 223.379C84.9824 224.445 86.1445 224.979 87.6758 224.979C89.2161 224.979 90.3145 224.65 90.9707 223.994V220.562H87.2383V217.541H95.0723V225.484ZM106.721 228C106.538 227.645 106.406 227.202 106.324 226.674C105.367 227.74 104.123 228.273 102.592 228.273C101.143 228.273 99.9395 227.854 98.9824 227.016C98.0345 226.177 97.5605 225.12 97.5605 223.844C97.5605 222.276 98.1393 221.073 99.2969 220.234C100.464 219.396 102.145 218.972 104.342 218.963H106.16V218.115C106.16 217.432 105.982 216.885 105.627 216.475C105.281 216.064 104.729 215.859 103.973 215.859C103.307 215.859 102.783 216.019 102.4 216.338C102.027 216.657 101.84 217.094 101.84 217.65H97.8887C97.8887 216.794 98.153 216.001 98.6816 215.271C99.2103 214.542 99.9577 213.973 100.924 213.562C101.89 213.143 102.975 212.934 104.178 212.934C106.001 212.934 107.445 213.394 108.512 214.314C109.587 215.226 110.125 216.511 110.125 218.17V224.582C110.134 225.986 110.33 227.048 110.713 227.768V228H106.721ZM103.453 225.252C104.036 225.252 104.574 225.124 105.066 224.869C105.559 224.605 105.923 224.254 106.16 223.816V221.273H104.684C102.706 221.273 101.653 221.957 101.525 223.324L101.512 223.557C101.512 224.049 101.685 224.454 102.031 224.773C102.378 225.092 102.852 225.252 103.453 225.252ZM116.865 213.207L116.988 214.861C118.036 213.576 119.454 212.934 121.24 212.934C123.145 212.934 124.453 213.686 125.164 215.189C126.203 213.686 127.684 212.934 129.607 212.934C131.212 212.934 132.406 213.403 133.189 214.342C133.973 215.271 134.365 216.675 134.365 218.553V228H130.4V218.566C130.4 217.728 130.236 217.117 129.908 216.734C129.58 216.342 129.001 216.146 128.172 216.146C126.987 216.146 126.167 216.712 125.711 217.842L125.725 228H121.773V218.58C121.773 217.723 121.605 217.104 121.268 216.721C120.93 216.338 120.356 216.146 119.545 216.146C118.424 216.146 117.613 216.611 117.111 217.541V228H113.16V213.207H116.865ZM144.223 228.273C142.053 228.273 140.285 227.608 138.918 226.277C137.56 224.947 136.881 223.174 136.881 220.959V220.576C136.881 219.09 137.168 217.764 137.742 216.598C138.316 215.422 139.128 214.52 140.176 213.891C141.233 213.253 142.436 212.934 143.785 212.934C145.809 212.934 147.399 213.572 148.557 214.848C149.723 216.124 150.307 217.933 150.307 220.275V221.889H140.887C141.014 222.855 141.397 223.63 142.035 224.213C142.682 224.796 143.498 225.088 144.482 225.088C146.005 225.088 147.194 224.536 148.051 223.434L149.992 225.607C149.4 226.446 148.598 227.102 147.586 227.576C146.574 228.041 145.453 228.273 144.223 228.273ZM143.771 216.133C142.988 216.133 142.35 216.397 141.857 216.926C141.374 217.454 141.064 218.211 140.928 219.195H146.424V218.881C146.406 218.006 146.169 217.331 145.713 216.857C145.257 216.374 144.61 216.133 143.771 216.133ZM160.574 223.912C160.574 223.429 160.333 223.051 159.85 222.777C159.376 222.495 158.61 222.244 157.553 222.025C154.035 221.287 152.275 219.792 152.275 217.541C152.275 216.229 152.818 215.135 153.902 214.26C154.996 213.376 156.423 212.934 158.182 212.934C160.059 212.934 161.559 213.376 162.68 214.26C163.81 215.144 164.375 216.292 164.375 217.705H160.424C160.424 217.14 160.242 216.675 159.877 216.311C159.512 215.937 158.943 215.75 158.168 215.75C157.503 215.75 156.988 215.9 156.623 216.201C156.258 216.502 156.076 216.885 156.076 217.35C156.076 217.787 156.281 218.143 156.691 218.416C157.111 218.68 157.812 218.913 158.797 219.113C159.781 219.305 160.611 219.523 161.285 219.77C163.372 220.535 164.416 221.861 164.416 223.748C164.416 225.097 163.837 226.191 162.68 227.029C161.522 227.859 160.027 228.273 158.195 228.273C156.956 228.273 155.853 228.055 154.887 227.617C153.93 227.171 153.178 226.564 152.631 225.799C152.084 225.024 151.811 224.19 151.811 223.297H155.557C155.593 223.999 155.853 224.536 156.336 224.91C156.819 225.284 157.466 225.471 158.277 225.471C159.034 225.471 159.604 225.329 159.986 225.047C160.378 224.755 160.574 224.377 160.574 223.912Z" fill="#77BB88"/>
<g clip-path="url(#clip0)">
<path d="M97.6792 56.6958V56.0383C97.6792 53.4326 95.6348 51.3205 93.1127 51.3205H84.5024C81.9803 51.3205 79.9359 53.4326 79.9359 56.0383V56.3631L97.6792 56.6958Z" fill="#EDC963"/>
<path d="M175.064 56.3631V56.0383C175.064 53.4326 173.02 51.3205 170.498 51.3205H161.887C159.365 51.3205 157.321 53.4326 157.321 56.0383V56.6958L175.064 56.3631Z" fill="#EDC963"/>
<path d="M175.064 62.0245V56.3631C172.421 55.4308 169.587 54.9216 166.638 54.9216C163.354 54.9216 160.214 55.5502 157.321 56.6955V62.3569L175.064 62.0245Z" fill="#E7B93E"/>
<path d="M88.3621 60.583C91.6457 60.583 94.7864 61.2116 97.6792 62.3572V56.0383C97.6792 53.4326 95.6348 51.3205 93.1127 51.3205H84.5024C81.9803 51.3205 79.9359 53.4326 79.9359 56.0383V62.0245C82.5792 61.0921 85.4126 60.583 88.3621 60.583V60.583Z" fill="#EDC963"/>
<path d="M97.6792 62.3569V56.6958C94.7864 55.5501 91.646 54.9219 88.3621 54.9219C85.4126 54.9219 82.5792 55.431 79.9359 56.3634V62.0247L97.6792 62.3569Z" fill="#E7B93E"/>
<path d="M61.9722 161.935C75.6492 168.201 82.3413 158.809 85.3338 149.643L92.5683 127.388C92.5686 127.388 92.5689 127.389 92.5692 127.389L92.5689 127.389L94.1455 125.369C94.1455 125.369 98.6077 127.864 102.399 127.864C106.919 127.864 111.018 126.006 114.026 122.993C114.304 122.714 114.681 122.564 115.069 122.564H139.931C140.319 122.564 140.696 122.714 140.975 122.993C143.983 126.006 148.081 127.864 152.602 127.864C156.393 127.864 160.855 125.369 160.855 125.369L162.432 127.388L169.662 149.631C172.649 158.806 184.374 166.181 193.028 162.47C198.261 160.225 202.765 153.47 202.765 147.14L192.482 83.8739L192.475 83.8794C190.75 70.7248 179.844 60.583 166.638 60.583C159.183 60.583 152.466 63.8185 147.714 68.9997H107.286C102.534 63.8185 95.8165 60.583 88.3621 60.583C75.1561 60.583 64.2499 70.7248 62.5249 83.8794L62.5181 83.8739L52.2244 147.202L52.2347 147.139C52 154.935 56.7382 159.691 61.9722 161.935V161.935Z" fill="#454D58"/>
<path d="M61.9722 159.736C56.7382 157.492 53.1552 152.662 52.2347 147.139L52.2244 147.202C50.9778 154.872 55.0191 162.416 61.9719 165.397C70.6275 169.109 80.5151 164.465 83.4988 155.287L85.3338 149.642C82.3412 158.809 70.6225 163.445 61.9722 159.736Z" fill="#3C434C"/>
<path d="M202.765 147.14C201.845 152.662 198.262 157.492 193.028 159.736C184.374 163.447 172.649 158.806 169.662 149.631L171.501 155.287C174.485 164.466 184.372 169.109 193.028 165.398C199.98 162.416 204.022 154.872 202.775 147.203L202.765 147.14Z" fill="#3C434C"/>
<path d="M161.247 123.743C160.926 122.756 159.779 122.356 158.947 122.945C157.066 124.276 155.488 125.033 152.602 125.033C148.081 125.033 143.983 123.176 140.975 120.162C140.696 119.883 140.319 119.733 139.931 119.733H115.07C114.682 119.733 114.305 119.883 114.026 120.162C111.018 123.176 106.919 125.033 102.399 125.033C99.5128 125.033 97.9344 124.276 96.0539 122.945C95.2223 122.356 94.0753 122.756 93.7541 123.743L92.5688 127.388C95.3275 129.466 98.7233 130.695 102.398 130.695C107.13 130.695 111.399 128.66 114.439 125.395H140.561C143.601 128.66 147.87 130.695 152.602 130.695C156.277 130.695 159.673 129.466 162.432 127.388L161.247 123.743Z" fill="#3C434C"/>
<path d="M96.3627 110.801C96.3627 113.607 99.9923 118.193 102.973 118.193C105.954 118.193 109.583 113.586 109.583 110.801C108.508 108.123 105.954 106.239 102.973 106.239C99.9923 106.239 97.438 108.123 96.3627 110.801V110.801Z" fill="#DAD8DB"/>
<path d="M96.1902 83.1399H93.3899V80.2472C93.3899 77.4831 91.2211 75.2424 88.5455 75.2424C85.87 75.2424 83.7011 77.4831 83.7011 80.2472V83.1399H80.9012C78.2256 83.1399 76.0568 85.3806 76.0568 88.1447C76.0568 90.9089 78.2256 93.1495 80.9012 93.1495H83.7011V96.0422C83.7011 98.8064 85.87 101.047 88.5455 101.047C91.2211 101.047 93.3899 98.8064 93.3899 96.0422V93.1495H96.1902C98.8657 93.1495 101.035 90.9089 101.035 88.1447C101.034 85.3806 98.8654 83.1399 96.1902 83.1399Z" fill="#B3E59F"/>
<path d="M96.1902 83.1399H93.3899V80.2472C93.3899 77.4831 91.2211 75.2424 88.5455 75.2424C85.87 75.2424 83.7011 77.4831 83.7011 80.2472V83.1399H80.9012C78.2256 83.1399 76.0568 85.3806 76.0568 88.1447C76.0568 90.9089 78.2256 93.1495 80.9012 93.1495H83.7011V96.0422C83.7011 98.8064 85.87 101.047 88.5455 101.047C91.2211 101.047 93.3899 98.8064 93.3899 96.0422V93.1495H96.1902C98.8657 93.1495 101.035 90.9089 101.035 88.1447C101.034 85.3806 98.8654 83.1399 96.1902 83.1399Z" fill="#DAD8DB"/>
<path d="M168.018 72.0209C165.607 72.0209 163.634 74.0593 163.634 76.5507C163.634 79.0422 165.607 81.0805 168.018 81.0805C170.43 81.0805 172.403 79.0422 172.403 76.5507C172.403 74.0593 170.43 72.0209 168.018 72.0209Z" fill="#C4DBF9"/>
<path d="M168.018 72.0209C165.607 72.0209 163.634 74.0593 163.634 76.5507C163.634 79.0422 165.607 81.0805 168.018 81.0805C170.43 81.0805 172.403 79.0422 172.403 76.5507C172.403 74.0593 170.43 72.0209 168.018 72.0209Z" fill="#B3E59F"/>
<path d="M168.018 95.2089C165.607 95.2089 163.634 97.2473 163.634 99.7387C163.634 102.23 165.607 104.268 168.018 104.268C170.43 104.268 172.403 102.23 172.403 99.7387C172.403 97.2473 170.43 95.2089 168.018 95.2089Z" fill="#BED8FB"/>
<path d="M183.625 88.1447C183.625 85.6533 181.652 83.6149 179.24 83.6149C176.829 83.6149 174.856 85.6533 174.856 88.1447C174.856 90.6361 176.829 92.6745 179.24 92.6745C181.652 92.6742 183.625 90.6358 183.625 88.1447Z" fill="#EDC963"/>
<path d="M161.18 88.1447C161.18 85.6533 159.207 83.6149 156.796 83.6149C154.384 83.6149 152.411 85.6533 152.411 88.1447C152.411 90.6361 154.384 92.6745 156.796 92.6745C159.207 92.6742 161.18 90.6358 161.18 88.1447Z" fill="#DF667C"/>
<path d="M113.374 76.6544H141.625C144.498 76.6544 147.541 71.7696 147.541 68.9997H107.459C107.666 71.7696 110.501 76.6544 113.374 76.6544V76.6544Z" fill="#A6AEC4"/>
<path d="M102.973 115.362C99.9923 115.362 97.438 113.478 96.3627 110.801C96.0124 111.673 95.8183 112.628 95.8183 113.631C95.8183 117.714 99.0217 121.023 102.973 121.023C106.925 121.023 110.128 117.714 110.128 113.631C110.128 112.628 109.934 111.673 109.584 110.801C108.508 113.478 105.954 115.362 102.973 115.362Z" fill="#C8C5C9"/>
<path d="M145.417 110.801C145.417 113.607 149.046 118.193 152.027 118.193C155.008 118.193 158.638 113.586 158.638 110.801C157.562 108.123 155.008 106.239 152.027 106.239C149.046 106.239 146.492 108.123 145.417 110.801Z" fill="#DAD8DB"/>
<path d="M152.027 115.362C149.046 115.362 146.492 113.478 145.416 110.801C145.066 111.673 144.872 112.628 144.872 113.631C144.872 117.714 148.075 121.023 152.027 121.023C155.979 121.023 159.182 117.714 159.182 113.631C159.182 112.628 158.988 111.673 158.638 110.801C157.562 113.478 155.008 115.362 152.027 115.362Z" fill="#C8C5C9"/>
<path d="M141.626 73.8238H113.375C110.502 73.8238 108.099 71.7653 107.459 68.9997H107.286V73.1946C107.286 76.6687 110.012 79.4849 113.375 79.4849H141.626C144.988 79.4849 147.714 76.6687 147.714 73.1946V68.9997H147.541C146.901 71.7653 144.499 73.8238 141.626 73.8238V73.8238Z" fill="#959DB0"/>
</g>
<rect x="5" y="1" width="233" height="274" rx="15" stroke="#62B076" stroke-width="2"/>
</g>
<defs>
<filter id="filter0_d" x="0" y="0" width="243" height="284" filterUnits="userSpaceOnUse" color-interpolation-filters="sRGB">
<feFlood flood-opacity="0" result="BackgroundImageFix"/>
<feColorMatrix in="SourceAlpha" type="matrix" values="0 0 0 0 0 0 0 0 0 0 0 0 0 0 0 0 0 0 127 0"/>
<feOffset dy="4"/>
<feGaussianBlur stdDeviation="2"/>
<feColorMatrix type="matrix" values="0 0 0 0 0 0 0 0 0 0 0 0 0 0 0 0 0 0 0.25 0"/>
<feBlend mode="normal" in2="BackgroundImageFix" result="effect1_dropShadow"/>
<feBlend mode="normal" in="SourceGraphic" in2="effect1_dropShadow" result="shape"/>
</filter>
<clipPath id="clip0">
<rect width="151" height="156" fill="white" transform="translate(52 31)"/>
</clipPath>
</defs>
</svg>
