<svg width="243" height="284" viewBox="0 0 243 284" fill="none" xmlns="http://www.w3.org/2000/svg">
<g filter="url(#filter0_d)">
<path d="M83.123 215.777C83.123 215.003 82.8496 214.41 82.3027 214C81.7559 213.581 80.7715 213.143 79.3496 212.688C77.9277 212.223 76.8021 211.767 75.9727 211.32C73.7122 210.099 72.582 208.454 72.582 206.385C72.582 205.309 72.8828 204.352 73.4844 203.514C74.0951 202.666 74.9655 202.005 76.0957 201.531C77.235 201.057 78.5111 200.82 79.9238 200.82C81.3457 200.82 82.6126 201.08 83.7246 201.6C84.8366 202.11 85.6979 202.835 86.3086 203.773C86.9284 204.712 87.2383 205.779 87.2383 206.973H83.1367C83.1367 206.061 82.8496 205.355 82.2754 204.854C81.7012 204.343 80.8945 204.088 79.8555 204.088C78.8529 204.088 78.0736 204.302 77.5176 204.73C76.9616 205.15 76.6836 205.706 76.6836 206.398C76.6836 207.046 77.0072 207.588 77.6543 208.025C78.3105 208.463 79.2721 208.873 80.5391 209.256C82.8724 209.958 84.5723 210.828 85.6387 211.867C86.7051 212.906 87.2383 214.201 87.2383 215.75C87.2383 217.473 86.5866 218.826 85.2832 219.811C83.9798 220.786 82.2253 221.273 80.0195 221.273C78.4883 221.273 77.0938 220.995 75.8359 220.439C74.5781 219.874 73.6165 219.104 72.9512 218.129C72.2949 217.154 71.9668 216.023 71.9668 214.738H76.082C76.082 216.935 77.3945 218.033 80.0195 218.033C80.9948 218.033 81.7559 217.837 82.3027 217.445C82.8496 217.044 83.123 216.488 83.123 215.777ZM98.3398 221C98.1576 220.645 98.0254 220.202 97.9434 219.674C96.9863 220.74 95.7422 221.273 94.2109 221.273C92.7617 221.273 91.5586 220.854 90.6016 220.016C89.6536 219.177 89.1797 218.12 89.1797 216.844C89.1797 215.276 89.7585 214.073 90.916 213.234C92.0827 212.396 93.7643 211.972 95.9609 211.963H97.7793V211.115C97.7793 210.432 97.6016 209.885 97.2461 209.475C96.8997 209.064 96.3483 208.859 95.5918 208.859C94.9264 208.859 94.4023 209.019 94.0195 209.338C93.6458 209.657 93.459 210.094 93.459 210.65H89.5078C89.5078 209.794 89.7721 209.001 90.3008 208.271C90.8294 207.542 91.5768 206.973 92.543 206.562C93.5091 206.143 94.5938 205.934 95.7969 205.934C97.6198 205.934 99.0645 206.394 100.131 207.314C101.206 208.226 101.744 209.511 101.744 211.17V217.582C101.753 218.986 101.949 220.048 102.332 220.768V221H98.3398ZM95.0723 218.252C95.6556 218.252 96.1934 218.124 96.6855 217.869C97.1777 217.605 97.5423 217.254 97.7793 216.816V214.273H96.3027C94.3249 214.273 93.2721 214.957 93.1445 216.324L93.1309 216.557C93.1309 217.049 93.304 217.454 93.6504 217.773C93.9967 218.092 94.4707 218.252 95.0723 218.252ZM113.639 219.496C112.663 220.681 111.314 221.273 109.592 221.273C108.006 221.273 106.794 220.818 105.955 219.906C105.126 218.995 104.702 217.66 104.684 215.9V206.207H108.635V215.764C108.635 217.304 109.337 218.074 110.74 218.074C112.08 218.074 113.001 217.609 113.502 216.68V206.207H117.467V221H113.748L113.639 219.496ZM111.875 200H116.182L112.395 204.238H109.182L111.875 200ZM119.832 213.494C119.832 211.188 120.347 209.352 121.377 207.984C122.416 206.617 123.833 205.934 125.629 205.934C127.069 205.934 128.258 206.471 129.197 207.547V200H133.162V221H129.594L129.402 219.428C128.418 220.658 127.151 221.273 125.602 221.273C123.861 221.273 122.462 220.59 121.404 219.223C120.356 217.846 119.832 215.937 119.832 213.494ZM123.783 213.781C123.783 215.167 124.025 216.229 124.508 216.967C124.991 217.705 125.693 218.074 126.613 218.074C127.835 218.074 128.696 217.559 129.197 216.529V210.691C128.705 209.661 127.853 209.146 126.641 209.146C124.736 209.146 123.783 210.691 123.783 213.781ZM143.033 221.273C140.864 221.273 139.096 220.608 137.729 219.277C136.37 217.947 135.691 216.174 135.691 213.959V213.576C135.691 212.09 135.979 210.764 136.553 209.598C137.127 208.422 137.938 207.52 138.986 206.891C140.044 206.253 141.247 205.934 142.596 205.934C144.619 205.934 146.21 206.572 147.367 207.848C148.534 209.124 149.117 210.933 149.117 213.275V214.889H139.697C139.825 215.855 140.208 216.63 140.846 217.213C141.493 217.796 142.309 218.088 143.293 218.088C144.815 218.088 146.005 217.536 146.861 216.434L148.803 218.607C148.21 219.446 147.408 220.102 146.396 220.576C145.385 221.041 144.264 221.273 143.033 221.273ZM142.582 209.133C141.798 209.133 141.16 209.397 140.668 209.926C140.185 210.454 139.875 211.211 139.738 212.195H145.234V211.881C145.216 211.006 144.979 210.331 144.523 209.857C144.068 209.374 143.421 209.133 142.582 209.133ZM165.154 221.273C162.985 221.273 161.217 220.608 159.85 219.277C158.492 217.947 157.812 216.174 157.812 213.959V213.576C157.812 212.09 158.1 210.764 158.674 209.598C159.248 208.422 160.059 207.52 161.107 206.891C162.165 206.253 163.368 205.934 164.717 205.934C166.74 205.934 168.331 206.572 169.488 207.848C170.655 209.124 171.238 210.933 171.238 213.275V214.889H161.818C161.946 215.855 162.329 216.63 162.967 217.213C163.614 217.796 164.43 218.088 165.414 218.088C166.936 218.088 168.126 217.536 168.982 216.434L170.924 218.607C170.331 219.446 169.529 220.102 168.518 220.576C167.506 221.041 166.385 221.273 165.154 221.273ZM164.703 209.133C163.919 209.133 163.281 209.397 162.789 209.926C162.306 210.454 161.996 211.211 161.859 212.195H167.355V211.881C167.337 211.006 167.1 210.331 166.645 209.857C166.189 209.374 165.542 209.133 164.703 209.133ZM56.7773 254V234.094H63.75C66.1654 234.094 67.9974 234.559 69.2461 235.488C70.4948 236.409 71.1191 237.762 71.1191 239.549C71.1191 240.524 70.8685 241.385 70.3672 242.133C69.8659 242.871 69.1686 243.413 68.2754 243.76C69.2962 244.015 70.0983 244.53 70.6816 245.305C71.2741 246.079 71.5703 247.027 71.5703 248.148C71.5703 250.062 70.9596 251.512 69.7383 252.496C68.5169 253.48 66.776 253.982 64.5156 254H56.7773ZM60.8789 245.332V250.705H64.3926C65.3587 250.705 66.1107 250.477 66.6484 250.021C67.1953 249.557 67.4688 248.919 67.4688 248.107C67.4688 246.285 66.5254 245.359 64.6387 245.332H60.8789ZM60.8789 242.434H63.9141C65.9831 242.397 67.0176 241.572 67.0176 239.959C67.0176 239.057 66.7533 238.41 66.2246 238.018C65.7051 237.617 64.8802 237.416 63.75 237.416H60.8789V242.434ZM81.209 254.273C79.0397 254.273 77.2715 253.608 75.9043 252.277C74.5462 250.947 73.8672 249.174 73.8672 246.959V246.576C73.8672 245.09 74.1543 243.764 74.7285 242.598C75.3027 241.422 76.1139 240.52 77.1621 239.891C78.2194 239.253 79.4225 238.934 80.7715 238.934C82.7949 238.934 84.3854 239.572 85.543 240.848C86.7096 242.124 87.293 243.933 87.293 246.275V247.889H77.873C78.0007 248.855 78.3835 249.63 79.0215 250.213C79.6686 250.796 80.4844 251.088 81.4688 251.088C82.9909 251.088 84.1803 250.536 85.0371 249.434L86.9785 251.607C86.3861 252.446 85.584 253.102 84.5723 253.576C83.5605 254.041 82.4395 254.273 81.209 254.273ZM80.7578 242.133C79.974 242.133 79.3359 242.397 78.8438 242.926C78.3607 243.454 78.0508 244.211 77.9141 245.195H83.4102V244.881C83.3919 244.006 83.1549 243.331 82.6992 242.857C82.2435 242.374 81.5964 242.133 80.7578 242.133ZM93.2539 239.207L93.377 240.861C94.4251 239.576 95.8424 238.934 97.6289 238.934C99.5339 238.934 100.842 239.686 101.553 241.189C102.592 239.686 104.073 238.934 105.996 238.934C107.6 238.934 108.794 239.403 109.578 240.342C110.362 241.271 110.754 242.675 110.754 244.553V254H106.789V244.566C106.789 243.728 106.625 243.117 106.297 242.734C105.969 242.342 105.39 242.146 104.561 242.146C103.376 242.146 102.555 242.712 102.1 243.842L102.113 254H98.1621V244.58C98.1621 243.723 97.9935 243.104 97.6562 242.721C97.319 242.338 96.7448 242.146 95.9336 242.146C94.8125 242.146 94.0013 242.611 93.5 243.541V254H89.5488V239.207H93.2539ZM121.486 247.068H113.789V243.883H121.486V247.068ZM136.895 245.373H129.02V250.705H138.262V254H124.918V234.094H138.234V237.416H129.02V242.16H136.895V245.373ZM148.42 249.912C148.42 249.429 148.178 249.051 147.695 248.777C147.221 248.495 146.456 248.244 145.398 248.025C141.88 247.287 140.121 245.792 140.121 243.541C140.121 242.229 140.663 241.135 141.748 240.26C142.842 239.376 144.268 238.934 146.027 238.934C147.905 238.934 149.404 239.376 150.525 240.26C151.656 241.144 152.221 242.292 152.221 243.705H148.27C148.27 243.14 148.087 242.675 147.723 242.311C147.358 241.937 146.788 241.75 146.014 241.75C145.348 241.75 144.833 241.9 144.469 242.201C144.104 242.502 143.922 242.885 143.922 243.35C143.922 243.787 144.127 244.143 144.537 244.416C144.956 244.68 145.658 244.913 146.643 245.113C147.627 245.305 148.456 245.523 149.131 245.77C151.218 246.535 152.262 247.861 152.262 249.748C152.262 251.097 151.683 252.191 150.525 253.029C149.368 253.859 147.873 254.273 146.041 254.273C144.801 254.273 143.699 254.055 142.732 253.617C141.775 253.171 141.023 252.564 140.477 251.799C139.93 251.024 139.656 250.19 139.656 249.297H143.402C143.439 249.999 143.699 250.536 144.182 250.91C144.665 251.284 145.312 251.471 146.123 251.471C146.88 251.471 147.449 251.329 147.832 251.047C148.224 250.755 148.42 250.377 148.42 249.912ZM159.549 235.57V239.207H162.078V242.105H159.549V249.488C159.549 250.035 159.654 250.427 159.863 250.664C160.073 250.901 160.474 251.02 161.066 251.02C161.504 251.02 161.891 250.988 162.229 250.924V253.918C161.454 254.155 160.656 254.273 159.836 254.273C157.065 254.273 155.652 252.874 155.598 250.076V242.105H153.438V239.207H155.598V235.57H159.549ZM172.852 254C172.669 253.645 172.537 253.202 172.455 252.674C171.498 253.74 170.254 254.273 168.723 254.273C167.273 254.273 166.07 253.854 165.113 253.016C164.165 252.177 163.691 251.12 163.691 249.844C163.691 248.276 164.27 247.073 165.428 246.234C166.594 245.396 168.276 244.972 170.473 244.963H172.291V244.115C172.291 243.432 172.113 242.885 171.758 242.475C171.411 242.064 170.86 241.859 170.104 241.859C169.438 241.859 168.914 242.019 168.531 242.338C168.158 242.657 167.971 243.094 167.971 243.65H164.02C164.02 242.794 164.284 242.001 164.812 241.271C165.341 240.542 166.089 239.973 167.055 239.562C168.021 239.143 169.105 238.934 170.309 238.934C172.132 238.934 173.576 239.394 174.643 240.314C175.718 241.226 176.256 242.511 176.256 244.17V250.582C176.265 251.986 176.461 253.048 176.844 253.768V254H172.852ZM169.584 251.252C170.167 251.252 170.705 251.124 171.197 250.869C171.689 250.605 172.054 250.254 172.291 249.816V247.273H170.814C168.837 247.273 167.784 247.957 167.656 249.324L167.643 249.557C167.643 250.049 167.816 250.454 168.162 250.773C168.508 251.092 168.982 251.252 169.584 251.252ZM187.604 242.912C187.066 242.839 186.592 242.803 186.182 242.803C184.687 242.803 183.707 243.309 183.242 244.32V254H179.291V239.207H183.023L183.133 240.971C183.926 239.613 185.024 238.934 186.428 238.934C186.865 238.934 187.275 238.993 187.658 239.111L187.604 242.912Z" fill="#77BB88"/>
<g clip-path="url(#clip0)">
<path d="M130.5 35.5748C83.1947 35.5748 44.8461 68.3533 44.8461 108.787C44.8461 134.91 60.8554 157.833 84.9421 170.791L129.264 181.987C129.676 181.992 130.087 182 130.5 182C177.805 182 216.154 149.222 216.154 108.787C216.154 68.3533 177.805 35.5748 130.5 35.5748V35.5748Z" fill="#4FABF7"/>
<path d="M150.855 40.6785C148.358 39.6159 144.778 37.8109 141.963 35.2628C134.2 28.2359 114.946 25.1854 105.802 36.5926C105.216 37.3241 104.394 37.8925 103.453 38.2652C98.8928 40.0713 87.7868 46.6311 98.8191 63.1037C101.451 67.0333 103.156 70.3258 104.203 73.0831C106.256 71.0947 108.109 68.7319 108.18 66.6275C108.252 64.4553 107.537 62.781 106.963 61.4357C106.306 59.8985 105.872 58.8834 106.741 57.8719C107.96 56.4509 110 56.7776 111.504 57.5575C112.354 57.9986 112.864 58.835 112.834 59.7404L112.782 61.271C112.745 62.38 113.77 63.3078 115.068 63.3398C116.322 63.3706 117.382 62.5581 117.481 61.4901C118.158 54.1984 119.442 49.1347 120.916 47.9448C122.081 47.0041 124.795 47.2975 128.228 47.669C132.23 48.1017 137.161 48.636 142.505 47.6519C142.473 47.7622 142.439 47.8883 142.405 48.0204L143.21 47.0686C143.21 47.0686 147.375 45.7747 151.051 43.6984C152.367 42.9553 152.266 41.2788 150.855 40.6785V40.6785Z" fill="#3C58A0"/>
<path d="M103.453 38.2651C98.8928 40.0713 87.7868 46.6311 98.8191 63.1037C101.451 67.0333 103.156 70.3258 104.203 73.0831C106.256 71.0947 108.109 68.7319 108.18 66.6275C108.252 64.4553 107.537 62.781 106.963 61.4357C106.306 59.8985 105.872 58.8834 106.741 57.8719C107.96 56.4509 109.999 56.7775 111.504 57.5575C112.354 57.9986 112.864 58.835 112.834 59.7404L112.782 61.271C112.745 62.38 113.77 63.3078 115.068 63.3398C116.322 63.3706 117.382 62.5581 117.482 61.4901C118.118 54.6358 119.29 49.7512 120.653 48.2012C106.526 47.5844 105.802 36.5932 105.802 36.5932C105.216 37.3238 104.394 37.8922 103.453 38.2651V38.2651Z" fill="#2A428C"/>
<path d="M128.884 98.2316C128.456 97.3193 127.904 96.2785 127.33 95.1713L127.34 95.2182C123.349 91.1572 115.983 89.1962 105.864 86.5023C105.486 86.3457 100.186 85.3832 97.0683 82.0907C96.4446 81.4318 95.6069 80.3252 95.465 79.4162C88.2298 85.4068 70.3679 102.974 77.5436 125.55C82.8196 142.149 83.9097 159.135 83.9212 170.234C93.2537 175.413 103.839 179.08 115.204 180.833L125.403 181.868L125.4 181.871C127.088 181.955 128.788 182 130.5 182C130.569 182 130.637 181.998 130.706 181.998C131.674 176.217 135.16 155.796 138.633 140.417C142.718 122.324 128.884 98.2316 128.884 98.2316V98.2316Z" fill="#3C58A0"/>
<path d="M121.495 117.091C107.033 111.101 112.177 97.1104 113.556 93.9638C113.718 93.5935 113.652 93.1787 113.381 92.8587C112.308 91.592 112.725 90.3037 113.137 89.5683C113.333 89.2181 113.304 88.8209 113.098 88.4797C110.874 87.8369 108.461 87.1938 105.864 86.5023C105.486 86.3457 100.186 85.3832 97.0683 82.0907C96.4446 81.4318 95.6069 80.3252 95.465 79.4162C88.2298 85.4068 70.3679 102.974 77.5436 125.55C82.8196 142.149 83.9097 159.135 83.9212 170.234C93.2537 175.413 103.839 179.08 115.204 180.833L125.403 181.868L125.4 181.871C127.088 181.955 128.788 182 130.5 182C130.569 182 130.637 181.998 130.706 181.998C131.674 176.217 135.16 155.796 138.633 140.417C139.203 137.889 139.424 135.244 139.381 132.565C132.279 128.258 134.551 122.499 121.495 117.091V117.091Z" fill="#2A428C"/>
<path d="M111.499 129.668C110.227 128.593 108.731 127.717 107.077 127.087C103.461 125.708 100.395 123.466 98.2349 120.667C98.4258 127.259 99.6323 135.616 103.579 143.334C110.001 155.891 118.194 168.874 115.175 180.83C118.521 181.346 121.935 181.693 125.404 181.868C127.319 176.235 128.259 168.246 124.064 159.144C119.042 148.252 113.571 138.731 111.499 129.668V129.668Z" fill="#BBEA49"/>
<path d="M108.211 152.201C110.394 145.278 118.535 147.646 118.536 147.646C115.48 141.316 112.809 135.4 111.499 129.668C110.227 128.593 108.731 127.717 107.077 127.087C103.46 125.708 100.395 123.466 98.2346 120.667C98.4254 127.259 99.6319 135.616 103.579 143.334C105.081 146.272 106.68 149.234 108.211 152.201Z" fill="#9FD332"/>
<path d="M144.179 59.6586C140.561 54.493 143.211 47.068 143.211 47.068C132.731 49.2961 123.427 45.3235 120.57 47.6301C118.326 49.4413 117.316 57.8545 116.985 61.3846C116.91 62.1875 116.176 62.8647 115.235 62.9059C114.143 62.9534 113.257 62.1977 113.288 61.2827L113.34 59.7368C113.374 58.7101 112.794 57.7204 111.766 57.1875C109.944 56.2423 107.668 56.0607 106.334 57.6161C104.427 59.8378 107.827 62.0815 107.675 66.615C107.582 69.4018 104.079 72.7574 101.394 74.9305C101.612 75.0315 101.805 75.18 101.933 75.3847C102.067 75.8225 103.282 79.389 107.825 81.2564C112.371 83.1243 119.627 86.7512 122.702 87.8183C123.361 88.0466 124.023 88.4509 124.612 88.9509C124.273 87.7846 124.093 86.6592 124.179 85.6375C124.853 77.6295 135.454 85.6303 138.875 83.5821C144.077 80.4686 140.04 70.1908 142.775 69.6343C148.359 68.4985 147.798 64.8241 144.179 59.6586V59.6586Z" fill="#F9BA8F"/>
<path d="M113.288 61.2827L113.339 59.7369C113.374 58.7101 112.793 57.7204 111.766 57.1876C109.943 56.2424 107.668 56.0607 106.333 57.6161C104.426 59.8379 107.827 62.0815 107.675 66.615C107.581 69.4019 104.079 72.7574 101.393 74.9305C101.612 75.0315 101.804 75.18 101.932 75.3847C102.066 75.8225 103.281 79.389 107.824 81.2564C112.371 83.1243 119.627 86.7512 122.702 87.8183C123.36 88.0466 124.022 88.451 124.612 88.9509C124.273 87.7846 124.093 86.6592 124.179 85.6375C124.516 81.6323 127.336 81.6317 130.5 82.3758C114.301 76.7985 115.234 62.9062 115.234 62.9062C114.143 62.9534 113.257 62.198 113.288 61.2827V61.2827Z" fill="#FFAA7B"/>
<path d="M126.956 91.8103C126.575 90.1049 124.724 88.1772 122.842 87.5243C119.781 86.4622 112.57 82.8545 107.986 80.9704C103.348 79.0644 102.282 75.2717 102.282 75.2717C101.772 74.3997 100.421 74.1992 99.5896 74.8674L95.5691 78.0992C95.0671 78.5029 94.901 79.1221 95.1398 79.6749C95.1398 79.6749 96.189 84.2572 104.84 86.5623C115.59 89.4266 123.307 91.3866 127.284 95.6602C127.464 95.8541 127.828 95.708 127.774 95.4647L126.956 91.8103Z" fill="#BBEA49"/>
<path d="M188.995 110.585C188.859 110.592 188.724 110.602 188.588 110.607C188.183 110.623 187.777 110.633 187.368 110.633H187.368C183.442 110.633 179.722 109.871 176.395 108.514C175.802 109.431 175.181 110.213 174.545 110.757C171.083 113.716 162.086 118.599 159.208 126.079C159.047 126.497 158.38 126.545 158.145 126.153C157.251 124.667 155.322 121.935 151.781 118.818C149.133 125.075 141.923 137.602 125.243 143.167C129.673 145.833 135.235 148.113 142.118 149.209C142.118 149.209 154.244 157.028 164.123 154.589C164.79 154.424 165.489 154.389 166.172 154.502C167.381 154.701 169.467 154.825 171.106 153.781C172.828 152.684 173.298 151.12 173.422 150.218C173.493 149.704 173.684 149.21 174.002 148.769C176.469 145.34 186.655 130.229 189.679 110.542C189.453 110.561 189.224 110.572 188.995 110.585V110.585Z" fill="#F9BA8F"/>
<path d="M151.994 138.125L147.241 126.945C143.066 132.857 136.196 139.513 125.243 143.168C129.673 145.834 135.235 148.114 142.118 149.21C139.926 140.192 151.994 138.125 151.994 138.125V138.125Z" fill="#FCAD6D"/>
<path d="M176.395 108.514C175.802 109.431 175.181 110.214 174.545 110.757C171.083 113.716 162.086 118.599 159.208 126.079C159.047 126.497 158.38 126.546 158.145 126.154C157.251 124.667 155.322 121.936 151.781 118.819C150.228 122.489 147.101 128.316 141.417 133.631C142.899 134.307 144.698 136.283 146.935 136.861C163.713 141.194 163.975 140.191 167.209 137.426C170.443 134.662 182.601 119.498 182.601 110.25C180.423 109.897 178.341 109.308 176.395 108.514V108.514Z" fill="#FCAD6D"/>
<path d="M148.649 116.297C146.106 122.434 138.848 135.378 121.495 140.639C122.719 141.562 124.053 142.469 125.513 143.334C142.529 137.857 149.576 124.949 151.994 119.001C151.012 118.125 149.9 117.218 148.649 116.297Z" fill="#DAE2FE"/>
<path d="M137.864 131.52C133.803 135.173 128.465 138.526 121.495 140.639C122.719 141.562 124.053 142.469 125.513 143.334C132.51 141.082 137.818 137.573 141.815 133.809C140.167 133.095 138.896 132.328 137.864 131.52Z" fill="#AAB9F2"/>
<path d="M137.761 110.043C136.588 109.518 135.68 108.645 135.231 107.58L134.14 104.994C133.709 103.974 133.197 102.977 132.554 102.041C128.83 96.6173 121.814 93.0445 113.851 93.3281C103.105 93.7109 94.4095 101.243 94.0959 110.433C93.8431 117.847 98.9415 124.269 106.334 127.087C109.038 128.117 111.326 129.796 112.888 131.945C114.674 134.401 117.565 137.738 121.797 140.87C139.156 135.565 146.379 122.564 148.885 116.473C146.001 114.325 142.354 112.1 137.761 110.043V110.043Z" fill="#4F71B6"/>
<path d="M121.495 117.091C107.033 111.101 112.177 97.1104 113.556 93.9638C113.644 93.7617 113.663 93.5469 113.619 93.3407C102.98 93.8233 94.4071 101.31 94.0959 110.432C93.8431 117.846 98.9415 124.269 106.334 127.086C109.038 128.117 111.326 129.796 112.888 131.945C114.674 134.4 117.565 137.738 121.797 140.87C128.754 138.744 134.08 135.38 138.13 131.722C132.506 127.524 133.717 122.154 121.495 117.091V117.091Z" fill="#3C58A0"/>
<path d="M209.619 91.288C210.881 80.7694 201.928 71.3684 189.622 70.2901C177.316 69.2118 166.317 76.8647 165.056 87.3832C163.794 97.9017 172.747 107.303 185.053 108.381C197.359 109.459 208.358 101.806 209.619 91.288Z" fill="#6289CC"/>
<path d="M200.227 105.053C199.734 104.379 199.61 103.613 199.607 103.029C199.605 102.516 199.137 102.091 198.54 102.047C191.105 101.498 191.793 95.659 192.126 94.0549C192.182 93.7853 192.104 93.5104 191.915 93.2899L184.37 84.5049C184.175 84.2784 183.875 84.1394 183.548 84.1099C176.449 83.4665 176.465 78.7755 176.85 76.6457C176.947 76.1066 176.51 75.6076 175.881 75.512C174.741 75.338 173.976 74.917 173.467 74.386C168.295 77.8921 164.974 83.3063 164.974 89.3869C164.974 99.9582 175 108.528 187.368 108.528C192.155 108.528 196.587 107.24 200.227 105.053V105.053Z" fill="#4F71B6"/>
<path d="M187.368 111.231C173.276 111.231 161.811 101.432 161.811 89.3866C161.811 77.3414 173.276 67.5419 187.368 67.5419C201.46 67.5419 212.925 77.3414 212.925 89.3866C212.925 101.432 201.46 111.231 187.368 111.231ZM187.368 72.9489C176.765 72.9489 168.137 80.3228 168.137 89.3866C168.137 98.4503 176.764 105.824 187.368 105.824C197.972 105.824 206.599 98.4503 206.599 89.3866C206.599 80.3228 197.972 72.9489 187.368 72.9489Z" fill="#4F71B6"/>
<path d="M203.161 106.542C203.153 106.541 203.146 106.538 203.138 106.537C200.107 106.124 199.614 104.208 199.608 103.029C199.606 102.745 199.459 102.491 199.229 102.311C195.959 104.508 191.841 105.824 187.368 105.824C176.764 105.824 168.138 98.45 168.138 89.3863C168.138 83.7545 171.47 78.7767 176.536 75.8135C176.365 75.662 176.142 75.5511 175.882 75.5114C172.975 75.0685 172.494 73.0284 172.524 71.6212C166.045 75.5879 161.812 82.0703 161.812 89.3863C161.812 101.431 173.276 111.231 187.368 111.231C193.326 111.231 198.81 109.475 203.161 106.542V106.542Z" fill="#3C58A0"/>
<path d="M193.819 91.6028C195.272 88.5597 193.564 85.0858 190.004 83.8436C186.444 82.6014 182.38 84.0613 180.926 87.1044C179.473 90.1474 181.181 93.6213 184.741 94.8635C188.301 96.1057 192.365 94.6458 193.819 91.6028Z" fill="#DAE2FE"/>
<path d="M44.8461 108.787C44.8461 129.798 55.2043 148.737 71.7901 162.088C74.515 155.661 71.3381 145.551 66.6054 131.298C57.4949 103.862 75.2366 82.7078 83.1482 69.1039C87.8809 60.9665 81.633 55.4968 75.8477 52.4144C56.909 65.844 44.8461 86.1108 44.8461 108.787V108.787Z" fill="#73C3F9"/>
<path d="M104.839 86.562C107.892 87.3754 110.699 88.1159 113.246 88.857C110.56 85.2783 114.755 83.9885 114.755 83.9885C112.371 82.8897 109.94 81.7733 107.986 80.9704C103.348 79.0644 102.282 75.2717 102.282 75.2717C101.772 74.3997 100.421 74.1992 99.5896 74.8674L95.5691 78.0992C95.0671 78.5029 94.901 79.1221 95.1398 79.6749C95.1398 79.6746 96.1886 84.2569 104.839 86.562Z" fill="#9FD332"/>
<path d="M158.844 39.684C159.14 42.5898 158.846 45.8443 156.654 47.718C148.272 54.8827 153.267 67.5419 161.811 67.5419C168.945 67.5419 179.386 57.6791 196.339 61.9586C186.525 51.889 173.609 44.1084 158.844 39.684Z" fill="#73C3F9"/>
</g>
<rect x="5" y="1" width="233" height="274" rx="15" stroke="#62B076" stroke-width="2"/>
</g>
<defs>
<filter id="filter0_d" x="0" y="0" width="243" height="284" filterUnits="userSpaceOnUse" color-interpolation-filters="sRGB">
<feFlood flood-opacity="0" result="BackgroundImageFix"/>
<feColorMatrix in="SourceAlpha" type="matrix" values="0 0 0 0 0 0 0 0 0 0 0 0 0 0 0 0 0 0 127 0"/>
<feOffset dy="4"/>
<feGaussianBlur stdDeviation="2"/>
<feColorMatrix type="matrix" values="0 0 0 0 0 0 0 0 0 0 0 0 0 0 0 0 0 0 0.25 0"/>
<feBlend mode="normal" in2="BackgroundImageFix" result="effect1_dropShadow"/>
<feBlend mode="normal" in="SourceGraphic" in2="effect1_dropShadow" result="shape"/>
</filter>
<clipPath id="clip0">
<rect width="179" height="153" fill="white" transform="translate(41 29)"/>
</clipPath>
</defs>
</svg>
