<svg width="243" height="284" viewBox="0 0 243 284" fill="none" xmlns="http://www.w3.org/2000/svg">
<g filter="url(#filter0_d)">
<g clip-path="url(#clip0)">
<path d="M91.5137 227.865H83.6387V236H79.5371V216.094H92.498V219.416H83.6387V224.557H91.5137V227.865ZM101.125 236.273C98.9557 236.273 97.1875 235.608 95.8203 234.277C94.4622 232.947 93.7832 231.174 93.7832 228.959V228.576C93.7832 227.09 94.0703 225.764 94.6445 224.598C95.2188 223.422 96.0299 222.52 97.0781 221.891C98.1354 221.253 99.3385 220.934 100.688 220.934C102.711 220.934 104.301 221.572 105.459 222.848C106.626 224.124 107.209 225.933 107.209 228.275V229.889H97.7891C97.9167 230.855 98.2995 231.63 98.9375 232.213C99.5846 232.796 100.4 233.088 101.385 233.088C102.907 233.088 104.096 232.536 104.953 231.434L106.895 233.607C106.302 234.446 105.5 235.102 104.488 235.576C103.477 236.041 102.355 236.273 101.125 236.273ZM100.674 224.133C99.89 224.133 99.252 224.397 98.7598 224.926C98.2767 225.454 97.9668 226.211 97.8301 227.195H103.326V226.881C103.308 226.006 103.071 225.331 102.615 224.857C102.16 224.374 101.512 224.133 100.674 224.133ZM117.477 231.912C117.477 231.429 117.235 231.051 116.752 230.777C116.278 230.495 115.512 230.244 114.455 230.025C110.937 229.287 109.178 227.792 109.178 225.541C109.178 224.229 109.72 223.135 110.805 222.26C111.898 221.376 113.325 220.934 115.084 220.934C116.962 220.934 118.461 221.376 119.582 222.26C120.712 223.144 121.277 224.292 121.277 225.705H117.326C117.326 225.14 117.144 224.675 116.779 224.311C116.415 223.937 115.845 223.75 115.07 223.75C114.405 223.75 113.89 223.9 113.525 224.201C113.161 224.502 112.979 224.885 112.979 225.35C112.979 225.787 113.184 226.143 113.594 226.416C114.013 226.68 114.715 226.913 115.699 227.113C116.684 227.305 117.513 227.523 118.188 227.77C120.275 228.535 121.318 229.861 121.318 231.748C121.318 233.097 120.74 234.191 119.582 235.029C118.424 235.859 116.93 236.273 115.098 236.273C113.858 236.273 112.755 236.055 111.789 235.617C110.832 235.171 110.08 234.564 109.533 233.799C108.986 233.024 108.713 232.19 108.713 231.297H112.459C112.495 231.999 112.755 232.536 113.238 232.91C113.721 233.284 114.368 233.471 115.18 233.471C115.936 233.471 116.506 233.329 116.889 233.047C117.281 232.755 117.477 232.377 117.477 231.912ZM128.605 217.57V221.207H131.135V224.105H128.605V231.488C128.605 232.035 128.71 232.427 128.92 232.664C129.13 232.901 129.531 233.02 130.123 233.02C130.561 233.02 130.948 232.988 131.285 232.924V235.918C130.51 236.155 129.713 236.273 128.893 236.273C126.122 236.273 124.709 234.874 124.654 232.076V224.105H122.494V221.207H124.654V217.57H128.605ZM141.908 236C141.726 235.645 141.594 235.202 141.512 234.674C140.555 235.74 139.311 236.273 137.779 236.273C136.33 236.273 135.127 235.854 134.17 235.016C133.222 234.177 132.748 233.12 132.748 231.844C132.748 230.276 133.327 229.073 134.484 228.234C135.651 227.396 137.333 226.972 139.529 226.963H141.348V226.115C141.348 225.432 141.17 224.885 140.814 224.475C140.468 224.064 139.917 223.859 139.16 223.859C138.495 223.859 137.971 224.019 137.588 224.338C137.214 224.657 137.027 225.094 137.027 225.65H133.076C133.076 224.794 133.34 224.001 133.869 223.271C134.398 222.542 135.145 221.973 136.111 221.562C137.077 221.143 138.162 220.934 139.365 220.934C141.188 220.934 142.633 221.394 143.699 222.314C144.775 223.226 145.312 224.511 145.312 226.17V232.582C145.322 233.986 145.518 235.048 145.9 235.768V236H141.908ZM138.641 233.252C139.224 233.252 139.762 233.124 140.254 232.869C140.746 232.605 141.111 232.254 141.348 231.816V229.273H139.871C137.893 229.273 136.84 229.957 136.713 231.324L136.699 231.557C136.699 232.049 136.872 232.454 137.219 232.773C137.565 233.092 138.039 233.252 138.641 233.252ZM156.359 231.912C156.359 231.429 156.118 231.051 155.635 230.777C155.161 230.495 154.395 230.244 153.338 230.025C149.82 229.287 148.061 227.792 148.061 225.541C148.061 224.229 148.603 223.135 149.688 222.26C150.781 221.376 152.208 220.934 153.967 220.934C155.844 220.934 157.344 221.376 158.465 222.26C159.595 223.144 160.16 224.292 160.16 225.705H156.209C156.209 225.14 156.027 224.675 155.662 224.311C155.298 223.937 154.728 223.75 153.953 223.75C153.288 223.75 152.773 223.9 152.408 224.201C152.044 224.502 151.861 224.885 151.861 225.35C151.861 225.787 152.066 226.143 152.477 226.416C152.896 226.68 153.598 226.913 154.582 227.113C155.566 227.305 156.396 227.523 157.07 227.77C159.158 228.535 160.201 229.861 160.201 231.748C160.201 233.097 159.622 234.191 158.465 235.029C157.307 235.859 155.812 236.273 153.98 236.273C152.741 236.273 151.638 236.055 150.672 235.617C149.715 235.171 148.963 234.564 148.416 233.799C147.869 233.024 147.596 232.19 147.596 231.297H151.342C151.378 231.999 151.638 232.536 152.121 232.91C152.604 233.284 153.251 233.471 154.062 233.471C154.819 233.471 155.389 233.329 155.771 233.047C156.163 232.755 156.359 232.377 156.359 231.912Z" fill="#77BB88"/>
<path d="M120.719 18.3627H130.281V41.9356H120.719V18.3627Z" fill="#F6E486"/>
<path d="M138.573 45.5116L154.648 28.8456L161.408 35.8549L145.334 52.5209L138.573 45.5116Z" fill="#F0CE46"/>
<path d="M89.5709 35.8488L96.3314 28.8395L112.406 45.5055L105.645 52.5149L89.5709 35.8488Z" fill="#F6E486"/>
<path d="M125.5 18.3627H130.281V41.9356H125.5V18.3627Z" fill="#F0CE46"/>
<path d="M72.4596 137.684C60.1241 132.867 53.8677 118.544 58.5126 105.755L75.9519 57.7416L120.694 75.2112L100.068 113.31C95.4225 126.1 84.7948 142.5 72.4596 137.684V137.684Z" fill="#ECF4F9"/>
<path d="M103.255 123.224L120.694 75.2112L98.3227 66.4764L72.4596 137.684C84.7948 142.5 98.6098 136.013 103.255 123.224V123.224Z" fill="#CDDFF8"/>
<path d="M57.7389 164.139L69.4071 131.97L78.3567 135.46L66.6885 167.629L57.7389 164.139Z" fill="#ECF4F9"/>
<path d="M62.2117 165.887L73.8799 133.718L78.3548 135.463L66.6866 167.632L62.2117 165.887Z" fill="#CDDFF8"/>
<path d="M60.5104 170.581L45 164.525L48.3696 155.247L63.88 161.303L77.5838 172.335L60.5104 170.581Z" fill="#ECF4F9"/>
<path d="M60.5239 170.517L63.8897 161.238L79.403 167.287L76.0372 176.566L60.5239 170.517Z" fill="#CDDFF8"/>
<path d="M72.4596 137.684C84.7948 142.5 85.8606 129.404 90.5058 116.615L110.869 102.26L61.3812 97.8592L58.5129 105.755C53.8677 118.544 60.1241 132.867 72.4596 137.684V137.684Z" fill="#E17D46"/>
<path d="M103.255 123.224L110.869 102.26L86.1252 100.059L72.4596 137.684C84.7948 142.5 98.6098 136.013 103.255 123.224V123.224Z" fill="#DB4D6C"/>
<path d="M179.877 134.145C167.667 139.292 153.695 133.18 148.73 120.519L130.094 72.9922L174.383 54.3246L180.27 98.5462C185.234 111.207 192.088 128.998 179.877 134.145V134.145Z" fill="#ECF4F9"/>
<path d="M193.02 101.851L174.383 54.3246L152.239 63.6586L179.877 134.145C192.088 128.998 197.984 114.511 193.02 101.851V101.851Z" fill="#CDDFF8"/>
<path d="M173.925 132.054L182.779 128.317L195.276 160.142L186.422 163.879L173.925 132.054Z" fill="#ECF4F9"/>
<path d="M178.353 130.182L182.781 128.313L195.277 160.138L190.85 162.007L178.353 130.182Z" fill="#CDDFF8"/>
<path d="M192.646 166.71L177.294 173.182L173.693 163.997L189.045 157.526L206.129 155.468L192.646 166.71Z" fill="#ECF4F9"/>
<path d="M189.046 157.412L204.393 150.933L207.998 160.113L192.65 166.592L189.046 157.412Z" fill="#CDDFF8"/>
<path d="M179.877 134.145C167.667 139.292 153.695 133.18 148.73 120.519L137.612 92.1636L189.306 92.3801L180.27 98.5462C185.234 111.207 192.088 128.998 179.877 134.145V134.145Z" fill="#F0CE46"/>
<path d="M163.459 92.2714L179.877 134.145C192.088 128.998 197.984 114.511 193.02 101.851L189.306 92.3801L163.459 92.2714Z" fill="#E8A43E"/>
</g>
<rect x="5" y="1" width="233" height="274" rx="15" stroke="#62B076" stroke-width="2"/>
</g>
<defs>
<filter id="filter0_d" x="0" y="0" width="243" height="284" filterUnits="userSpaceOnUse" color-interpolation-filters="sRGB">
<feFlood flood-opacity="0" result="BackgroundImageFix"/>
<feColorMatrix in="SourceAlpha" type="matrix" values="0 0 0 0 0 0 0 0 0 0 0 0 0 0 0 0 0 0 127 0"/>
<feOffset dy="4"/>
<feGaussianBlur stdDeviation="2"/>
<feColorMatrix type="matrix" values="0 0 0 0 0 0 0 0 0 0 0 0 0 0 0 0 0 0 0.25 0"/>
<feBlend mode="normal" in2="BackgroundImageFix" result="effect1_dropShadow"/>
<feBlend mode="normal" in="SourceGraphic" in2="effect1_dropShadow" result="shape"/>
</filter>
<clipPath id="clip0">
<rect x="4" width="235" height="276" rx="16" fill="white"/>
</clipPath>
</defs>
</svg>
