<svg width="1227" height="198" viewBox="0 0 1227 198" fill="none" xmlns="http://www.w3.org/2000/svg">
<g clip-path="url(#clip0)">
<g filter="url(#filter0_d)">
<rect y="78" width="1227" height="120" rx="16" fill="#F3F2F2"/>
<path d="M24.2217 148V123.117H31.8779C34.0654 123.117 36.0194 123.613 37.7397 124.604C39.4715 125.584 40.8216 126.985 41.79 128.808C42.7585 130.62 43.2427 132.682 43.2427 134.995V136.14C43.2427 138.452 42.7642 140.509 41.8071 142.309C40.8615 144.109 39.5228 145.505 37.791 146.496C36.0592 147.487 34.1053 147.989 31.9292 148H24.2217ZM29.3486 127.27V143.881H31.8267C33.8319 143.881 35.3643 143.226 36.4238 141.916C37.4834 140.606 38.0246 138.732 38.0474 136.293V134.978C38.0474 132.448 37.5233 130.534 36.4751 129.235C35.4269 127.925 33.8945 127.27 31.8779 127.27H29.3486ZM51.873 148H46.917V129.509H51.873V148ZM46.6265 124.724C46.6265 123.983 46.8714 123.374 47.3613 122.895C47.8626 122.417 48.5405 122.177 49.395 122.177C50.2381 122.177 50.9103 122.417 51.4116 122.895C51.9129 123.374 52.1636 123.983 52.1636 124.724C52.1636 125.476 51.9072 126.091 51.3945 126.569C50.8932 127.048 50.2267 127.287 49.395 127.287C48.5633 127.287 47.8911 127.048 47.3784 126.569C46.8771 126.091 46.6265 125.476 46.6265 124.724ZM55.2397 138.618C55.2397 135.781 55.9119 133.496 57.2563 131.765C58.6121 130.033 60.4351 129.167 62.7251 129.167C64.7531 129.167 66.3311 129.862 67.459 131.252L67.6641 129.509H72.1416V147.385C72.1416 149.003 71.7713 150.41 71.0308 151.606C70.3016 152.802 69.2705 153.714 67.9375 154.34C66.6045 154.967 65.0436 155.28 63.2549 155.28C61.8991 155.28 60.5775 155.007 59.29 154.46C58.0026 153.924 57.0285 153.229 56.3677 152.375L58.5552 149.367C59.7856 150.746 61.2782 151.435 63.0327 151.435C64.3429 151.435 65.3626 151.082 66.0918 150.375C66.821 149.681 67.1855 148.689 67.1855 147.402V146.411C66.0462 147.698 64.548 148.342 62.6909 148.342C60.4692 148.342 58.6691 147.476 57.2905 145.744C55.9233 144.001 55.2397 141.694 55.2397 138.823V138.618ZM60.1787 138.977C60.1787 140.651 60.5148 141.967 61.187 142.924C61.8592 143.87 62.7821 144.343 63.9556 144.343C65.4595 144.343 66.5361 143.779 67.1855 142.651V134.875C66.5247 133.747 65.4595 133.183 63.9897 133.183C62.8049 133.183 61.8706 133.667 61.187 134.636C60.5148 135.604 60.1787 137.051 60.1787 138.977ZM81.165 148H76.209V129.509H81.165V148ZM75.9185 124.724C75.9185 123.983 76.1634 123.374 76.6533 122.895C77.1546 122.417 77.8325 122.177 78.687 122.177C79.5301 122.177 80.2023 122.417 80.7036 122.895C81.2049 123.374 81.4556 123.983 81.4556 124.724C81.4556 125.476 81.1992 126.091 80.6865 126.569C80.1852 127.048 79.5187 127.287 78.687 127.287C77.8553 127.287 77.1831 127.048 76.6704 126.569C76.1691 126.091 75.9185 125.476 75.9185 124.724ZM91.1626 124.963V129.509H94.3242V133.132H91.1626V142.36C91.1626 143.044 91.2936 143.534 91.5557 143.83C91.8177 144.126 92.319 144.274 93.0596 144.274C93.6064 144.274 94.0907 144.235 94.5122 144.155V147.897C93.5438 148.194 92.5469 148.342 91.5215 148.342C88.0579 148.342 86.292 146.593 86.2236 143.095V133.132H83.5234V129.509H86.2236V124.963H91.1626ZM105.586 148.342C102.875 148.342 100.665 147.51 98.9556 145.847C97.258 144.183 96.4092 141.967 96.4092 139.199V138.72C96.4092 136.863 96.7681 135.205 97.4858 133.747C98.2036 132.277 99.2176 131.149 100.528 130.363C101.849 129.566 103.353 129.167 105.04 129.167C107.569 129.167 109.557 129.965 111.004 131.56C112.462 133.155 113.191 135.416 113.191 138.344V140.361H101.417C101.576 141.569 102.055 142.537 102.852 143.266C103.661 143.995 104.681 144.36 105.911 144.36C107.814 144.36 109.301 143.671 110.372 142.292L112.798 145.009C112.058 146.057 111.055 146.878 109.791 147.47C108.526 148.051 107.125 148.342 105.586 148.342ZM105.022 133.166C104.043 133.166 103.245 133.496 102.63 134.157C102.026 134.818 101.639 135.764 101.468 136.994H108.338V136.601C108.315 135.507 108.019 134.664 107.449 134.072C106.88 133.468 106.071 133.166 105.022 133.166ZM135.442 148C135.215 147.556 135.049 147.003 134.947 146.342C133.75 147.675 132.195 148.342 130.281 148.342C128.47 148.342 126.966 147.818 125.77 146.77C124.585 145.721 123.992 144.4 123.992 142.805C123.992 140.845 124.716 139.341 126.163 138.293C127.621 137.245 129.723 136.715 132.469 136.704H134.742V135.644C134.742 134.79 134.52 134.106 134.075 133.593C133.642 133.081 132.953 132.824 132.007 132.824C131.176 132.824 130.521 133.024 130.042 133.422C129.575 133.821 129.341 134.368 129.341 135.063H124.402C124.402 133.992 124.733 133.001 125.394 132.089C126.054 131.178 126.989 130.466 128.196 129.953C129.404 129.429 130.76 129.167 132.264 129.167C134.542 129.167 136.348 129.742 137.681 130.893C139.026 132.032 139.698 133.639 139.698 135.712V143.728C139.709 145.482 139.954 146.809 140.433 147.709V148H135.442ZM131.358 144.565C132.087 144.565 132.759 144.405 133.375 144.086C133.99 143.756 134.445 143.317 134.742 142.771V139.592H132.896C130.424 139.592 129.108 140.446 128.948 142.155L128.931 142.446C128.931 143.061 129.148 143.568 129.581 143.967C130.014 144.366 130.606 144.565 131.358 144.565ZM159.898 144.36C160.809 144.36 161.55 144.109 162.12 143.608C162.689 143.107 162.986 142.44 163.008 141.608H167.64C167.628 142.862 167.286 144.012 166.614 145.061C165.942 146.097 165.019 146.906 163.846 147.487C162.684 148.057 161.396 148.342 159.983 148.342C157.34 148.342 155.255 147.504 153.729 145.83C152.202 144.143 151.438 141.819 151.438 138.857V138.532C151.438 135.684 152.196 133.411 153.711 131.713C155.227 130.016 157.306 129.167 159.949 129.167C162.262 129.167 164.113 129.828 165.503 131.149C166.905 132.46 167.617 134.208 167.64 136.396H163.008C162.986 135.439 162.689 134.664 162.12 134.072C161.55 133.468 160.798 133.166 159.864 133.166C158.713 133.166 157.841 133.588 157.249 134.431C156.668 135.262 156.377 136.618 156.377 138.498V139.011C156.377 140.913 156.668 142.281 157.249 143.112C157.83 143.944 158.713 144.36 159.898 144.36ZM175.672 148H170.716V129.509H175.672V148ZM170.425 124.724C170.425 123.983 170.67 123.374 171.16 122.895C171.661 122.417 172.339 122.177 173.194 122.177C174.037 122.177 174.709 122.417 175.21 122.895C175.712 123.374 175.962 123.983 175.962 124.724C175.962 125.476 175.706 126.091 175.193 126.569C174.692 127.048 174.026 127.287 173.194 127.287C172.362 127.287 171.69 127.048 171.177 126.569C170.676 126.091 170.425 125.476 170.425 124.724ZM178.987 138.618C178.987 135.735 179.631 133.439 180.918 131.73C182.217 130.021 183.989 129.167 186.233 129.167C188.034 129.167 189.52 129.839 190.694 131.184V121.75H195.65V148H191.189L190.95 146.035C189.72 147.573 188.136 148.342 186.199 148.342C184.023 148.342 182.274 147.487 180.953 145.778C179.642 144.058 178.987 141.671 178.987 138.618ZM183.926 138.977C183.926 140.708 184.228 142.036 184.832 142.958C185.436 143.881 186.313 144.343 187.464 144.343C188.991 144.343 190.067 143.699 190.694 142.412V135.114C190.079 133.827 189.013 133.183 187.498 133.183C185.117 133.183 183.926 135.114 183.926 138.977ZM210.193 148C209.965 147.556 209.8 147.003 209.698 146.342C208.501 147.675 206.946 148.342 205.032 148.342C203.221 148.342 201.717 147.818 200.521 146.77C199.336 145.721 198.743 144.4 198.743 142.805C198.743 140.845 199.467 139.341 200.914 138.293C202.372 137.245 204.474 136.715 207.22 136.704H209.493V135.644C209.493 134.79 209.271 134.106 208.826 133.593C208.393 133.081 207.704 132.824 206.758 132.824C205.927 132.824 205.271 133.024 204.793 133.422C204.326 133.821 204.092 134.368 204.092 135.063H199.153C199.153 133.992 199.484 133.001 200.145 132.089C200.805 131.178 201.74 130.466 202.947 129.953C204.155 129.429 205.511 129.167 207.015 129.167C209.293 129.167 211.099 129.742 212.432 130.893C213.777 132.032 214.449 133.639 214.449 135.712V143.728C214.46 145.482 214.705 146.809 215.184 147.709V148H210.193ZM206.109 144.565C206.838 144.565 207.51 144.405 208.125 144.086C208.741 143.756 209.196 143.317 209.493 142.771V139.592H207.647C205.175 139.592 203.859 140.446 203.699 142.155L203.682 142.446C203.682 143.061 203.899 143.568 204.332 143.967C204.764 144.366 205.357 144.565 206.109 144.565ZM217.474 138.618C217.474 135.735 218.117 133.439 219.405 131.73C220.704 130.021 222.475 129.167 224.72 129.167C226.52 129.167 228.007 129.839 229.18 131.184V121.75H234.136V148H229.676L229.437 146.035C228.206 147.573 226.622 148.342 224.686 148.342C222.509 148.342 220.761 147.487 219.439 145.778C218.129 144.058 217.474 141.671 217.474 138.618ZM222.413 138.977C222.413 140.708 222.715 142.036 223.318 142.958C223.922 143.881 224.799 144.343 225.95 144.343C227.477 144.343 228.554 143.699 229.18 142.412V135.114C228.565 133.827 227.5 133.183 225.984 133.183C223.603 133.183 222.413 135.114 222.413 138.977ZM246.475 148.342C243.764 148.342 241.553 147.51 239.844 145.847C238.147 144.183 237.298 141.967 237.298 139.199V138.72C237.298 136.863 237.657 135.205 238.375 133.747C239.092 132.277 240.106 131.149 241.417 130.363C242.738 129.566 244.242 129.167 245.928 129.167C248.458 129.167 250.446 129.965 251.893 131.56C253.351 133.155 254.08 135.416 254.08 138.344V140.361H242.305C242.465 141.569 242.943 142.537 243.741 143.266C244.55 143.995 245.569 144.36 246.8 144.36C248.702 144.36 250.189 143.671 251.26 142.292L253.687 145.009C252.946 146.057 251.944 146.878 250.679 147.47C249.415 148.051 248.013 148.342 246.475 148.342ZM245.911 133.166C244.931 133.166 244.134 133.496 243.519 134.157C242.915 134.818 242.527 135.764 242.356 136.994H249.227V136.601C249.204 135.507 248.908 134.664 248.338 134.072C247.768 133.468 246.959 133.166 245.911 133.166Z" fill="#A79E9E"/>
</g>
<path d="M22.4561 42H17.3291L7.34863 25.6279V42H2.22168V17.1172H7.34863L17.3462 33.5234V17.1172H22.4561V42ZM25.8398 32.5835C25.8398 30.7492 26.193 29.1143 26.8994 27.6787C27.6058 26.2432 28.6198 25.1323 29.9414 24.3462C31.2744 23.5601 32.8182 23.167 34.5728 23.167C37.0679 23.167 39.1016 23.9303 40.6738 25.457C42.2575 26.9837 43.1405 29.0573 43.3228 31.6777L43.3569 32.9424C43.3569 35.7793 42.5651 38.0579 40.9814 39.7783C39.3978 41.4873 37.2729 42.3418 34.6069 42.3418C31.9409 42.3418 29.8104 41.4873 28.2153 39.7783C26.6317 38.0693 25.8398 35.7451 25.8398 32.8057V32.5835ZM30.7788 32.9424C30.7788 34.6969 31.1092 36.0413 31.77 36.9756C32.4308 37.8984 33.3765 38.3599 34.6069 38.3599C35.8032 38.3599 36.7375 37.9041 37.4097 36.9927C38.0819 36.0698 38.418 34.6001 38.418 32.5835C38.418 30.8631 38.0819 29.5301 37.4097 28.5845C36.7375 27.6388 35.7918 27.166 34.5728 27.166C33.3651 27.166 32.4308 27.6388 31.77 28.5845C31.1092 29.5187 30.7788 30.9714 30.7788 32.9424ZM51.0303 23.5088L51.1841 25.5767C52.4943 23.9702 54.266 23.167 56.499 23.167C58.8802 23.167 60.5151 24.1069 61.4038 25.9868C62.7026 24.1069 64.554 23.167 66.958 23.167C68.9632 23.167 70.4557 23.7537 71.4355 24.9272C72.4154 26.0894 72.9053 27.8439 72.9053 30.1909V42H67.9492V30.208C67.9492 29.1598 67.7441 28.3965 67.334 27.918C66.9238 27.4281 66.2004 27.1831 65.1636 27.1831C63.6825 27.1831 62.6571 27.8895 62.0874 29.3022L62.1045 42H57.1655V30.2251C57.1655 29.1541 56.9548 28.3794 56.5332 27.9009C56.1117 27.4224 55.3939 27.1831 54.3799 27.1831C52.9785 27.1831 51.9645 27.7642 51.3379 28.9263V42H46.3989V23.5088H51.0303ZM85.2271 42.3418C82.5155 42.3418 80.3052 41.5101 78.5962 39.8467C76.8986 38.1833 76.0498 35.9673 76.0498 33.1987V32.7202C76.0498 30.8631 76.4087 29.2054 77.1265 27.7471C77.8442 26.2773 78.8582 25.1494 80.1685 24.3633C81.4901 23.5658 82.994 23.167 84.6802 23.167C87.2095 23.167 89.1976 23.9645 90.6445 25.5596C92.1029 27.1546 92.832 29.4162 92.832 32.3442V34.3608H81.0571C81.2166 35.5685 81.6951 36.5369 82.4927 37.2661C83.3016 37.9953 84.3213 38.3599 85.5518 38.3599C87.4544 38.3599 88.9412 37.6706 90.0122 36.292L92.439 39.0093C91.6984 40.0575 90.6958 40.8778 89.4312 41.4702C88.1665 42.0513 86.7651 42.3418 85.2271 42.3418ZM84.6631 27.166C83.6833 27.166 82.8857 27.4964 82.2705 28.1572C81.6667 28.818 81.2793 29.7637 81.1084 30.9941H87.9785V30.6011C87.9557 29.5073 87.6595 28.6642 87.0898 28.0718C86.5202 27.4679 85.7113 27.166 84.6631 27.166ZM95.8911 39.5732C95.8911 38.7871 96.1532 38.1491 96.6772 37.6592C97.2127 37.1693 97.8792 36.9243 98.6768 36.9243C99.4857 36.9243 100.152 37.1693 100.676 37.6592C101.212 38.1491 101.479 38.7871 101.479 39.5732C101.479 40.348 101.217 40.9803 100.693 41.4702C100.169 41.9487 99.4971 42.188 98.6768 42.188C97.8678 42.188 97.2013 41.9487 96.6772 41.4702C96.1532 40.9803 95.8911 40.348 95.8911 39.5732ZM95.8911 25.5767C95.8911 24.7905 96.1532 24.1525 96.6772 23.6626C97.2127 23.1727 97.8792 22.9277 98.6768 22.9277C99.4857 22.9277 100.152 23.1727 100.676 23.6626C101.212 24.1525 101.479 24.7905 101.479 25.5767C101.479 26.3514 101.217 26.9837 100.693 27.4736C100.169 27.9521 99.4971 28.1914 98.6768 28.1914C97.8678 28.1914 97.2013 27.9521 96.6772 27.4736C96.1532 26.9837 95.8911 26.3514 95.8911 25.5767Z" fill="white"/>
</g>
<defs>
<filter id="filter0_d" x="-4" y="78" width="1235" height="128" filterUnits="userSpaceOnUse" color-interpolation-filters="sRGB">
<feFlood flood-opacity="0" result="BackgroundImageFix"/>
<feColorMatrix in="SourceAlpha" type="matrix" values="0 0 0 0 0 0 0 0 0 0 0 0 0 0 0 0 0 0 127 0"/>
<feOffset dy="4"/>
<feGaussianBlur stdDeviation="2"/>
<feColorMatrix type="matrix" values="0 0 0 0 0 0 0 0 0 0 0 0 0 0 0 0 0 0 0.25 0"/>
<feBlend mode="normal" in2="BackgroundImageFix" result="effect1_dropShadow"/>
<feBlend mode="normal" in="SourceGraphic" in2="effect1_dropShadow" result="shape"/>
</filter>
<clipPath id="clip0">
<rect width="1227" height="198" fill="white"/>
</clipPath>
</defs>
</svg>
