<svg id="Capa_1" enable-background="new 0 0 511.404 511.404" height="512" viewBox="0 0 511.404 511.404" width="512" xmlns="http://www.w3.org/2000/svg"><g><path d="m237.564 16.228h30v71.333h-30z" fill="#f6e486"/><path d="m293.777 68.739h71.333v30.001h-71.333z" fill="#f0ce46" transform="matrix(.707 -.707 .707 .707 37.283 257.484)"/><path d="m160.686 48.072h30.001v71.333h-30.001z" fill="#f6e486" transform="matrix(.707 -.707 .707 .707 -7.753 148.76)"/><path d="m252.564 16.228h15v71.333h-15z" fill="#f0ce46"/><path d="m86.153 377.3c-38.702-14.574-58.331-57.918-43.758-96.619l54.715-145.29 140.375 52.864-64.713 115.289c-14.574 38.702-47.918 88.33-86.619 73.756z" fill="#ecf4f9"/><path d="m182.772 333.544 54.713-145.289-70.188-26.432-81.144 215.477c38.701 14.574 82.045-5.054 96.619-43.756z" fill="#cddff8"/><path d="m20.276 399.15h104.001v29.999h-104.001z" fill="#ecf4f9" transform="matrix(.352 -.936 .936 .352 -340.774 335.833)"/><path d="m27.294 409.292h104.001v15h-104.001z" fill="#cddff8" transform="matrix(.352 -.936 .936 .352 -338.704 344.121)"/><path d="m48.663 476.851-48.663-18.327 10.572-28.075 48.663 18.326 42.995 33.381z" fill="#ecf4f9"/><path d="m63.281 445.976h30v52h-30z" fill="#cddff8" transform="matrix(.352 -.936 .936 .352 -391.003 378.904)"/><path d="m86.153 377.3c38.701 14.574 42.045-25.054 56.619-63.756l63.889-43.439-155.266-13.316-8.999 23.892c-14.574 38.701 5.055 82.044 43.757 96.619z" fill="#e17d46"/><path d="m182.772 333.544 23.889-63.439-77.633-6.658-42.875 113.853c38.701 14.574 82.045-5.054 96.619-43.756z" fill="#db4d6c"/><path d="m423.171 366.593c-38.31 15.573-82.147-2.922-97.724-41.233l-58.469-143.82 138.955-56.489 18.471 133.817c15.574 38.311 37.078 92.149-1.233 107.725z" fill="#ecf4f9"/><path d="m464.404 268.868-58.471-143.817-69.475 28.245 86.713 213.297c38.311-15.576 56.807-59.414 41.233-97.725z" fill="#cddff8"/><path d="m423.001 351.069h29.999v104h-29.999z" fill="#ecf4f9" transform="matrix(.926 -.377 .377 .926 -119.556 194.646)"/><path d="m437.449 348.243h15v104h-15z" fill="#cddff8" transform="matrix(.926 -.377 .377 .926 -117.976 197.045)"/><path d="m463.233 465.137-48.169 19.583-11.297-27.793 48.168-19.583 53.6-6.228z" fill="#ecf4f9"/><path d="m455.67 426.448h52v30h-52z" fill="#cddff8" transform="matrix(.926 -.377 .377 .926 -130.786 213.895)"/><path d="m423.171 366.593c-38.31 15.573-82.147-2.922-97.724-41.233l-34.883-85.806 162.19.655-28.35 18.659c15.574 38.311 37.078 92.149-1.233 107.725z" fill="#f0ce46"/><path d="m371.66 239.88 51.511 126.713c38.311-15.575 56.808-59.414 41.233-97.725l-11.65-28.659z" fill="#e8a43e"/></g></svg>